<?xml version="1.0" encoding="utf-8"?>
<!-- Generator: Adobe Illustrator 16.0.3, SVG Export Plug-In . SVG Version: 6.00 Build 0)  -->
<!DOCTYPE svg PUBLIC "-//W3C//DTD SVG 1.1//EN" "http://www.w3.org/Graphics/SVG/1.1/DTD/svg11.dtd">
<svg version="1.1" id="Ebene_1" xmlns="http://www.w3.org/2000/svg" xmlns:xlink="http://www.w3.org/1999/xlink" x="0px" y="0px"
	 width="85.04px" height="85.039px" viewBox="0 0 85.04 85.039" enable-background="new 0 0 85.04 85.039" xml:space="preserve">
<g>
	<path fill-rule="evenodd" clip-rule="evenodd" d="M21.541,75.098c2.883-1.638,5.601-3.199,8.351-4.704
		c0.288-0.16,0.828-0.077,1.16,0.084c3.287,1.608,6.575,3.23,9.832,4.911c0.644,0.33,1.113,0.289,1.726-0.024
		c3.234-1.653,6.484-3.273,9.741-4.878c0.316-0.158,0.817-0.303,1.07-0.161c2.802,1.536,5.565,3.129,8.466,4.777
		c-0.383,0.226-0.645,0.397-0.927,0.542c-6.159,3.104-12.315,6.21-18.491,9.282c-0.374,0.188-0.986,0.239-1.346,0.064
		c-6.357-3.156-12.689-6.355-19.027-9.549C21.958,75.373,21.826,75.276,21.541,75.098z"/>
	<path fill-rule="evenodd" clip-rule="evenodd" d="M77.708,40.628c-1.199-0.687-2.224-1.265-3.241-1.852
		c-1.542-0.893-3.099-1.763-4.605-2.712c-0.311-0.194-0.591-0.682-0.61-1.05c-0.078-1.318-0.063-2.644-0.023-3.965
		c0.018-0.555-0.161-0.806-0.69-0.997c-2.324-0.839-4.626-1.747-6.953-2.588c-0.609-0.221-0.874-0.495-0.859-1.198
		c0.052-2.641,0.02-5.283,0.02-8.095c0.446,0.154,0.803,0.265,1.15,0.395c5.006,1.874,10.009,3.751,15.015,5.625
		c0.434,0.163,0.816,0.284,0.813,0.921C77.697,30.2,77.708,35.287,77.708,40.628z"/>
	<path fill-rule="evenodd" clip-rule="evenodd" d="M5.754,40.626c0-5.35-0.006-10.467,0.017-15.584
		c0.003-0.246,0.245-0.628,0.46-0.712c5.42-2.062,10.848-4.09,16.435-6.186c0,0.997,0,1.871,0,2.745
		c0.003,1.717-0.031,3.435,0.023,5.15c0.026,0.8-0.172,1.223-1.004,1.501c-2.25,0.754-4.447,1.656-6.683,2.454
		c-0.596,0.212-0.814,0.515-0.788,1.147c0.055,1.285,0.04,2.577,0.014,3.863c-0.008,0.296-0.097,0.739-0.296,0.857
		C11.274,37.446,8.59,38.982,5.754,40.626z"/>
	<path fill-rule="evenodd" clip-rule="evenodd" d="M3.729,47.184c2.014-1.155,4.013-2.3,6.009-3.445
		c2.002-1.15,3.993-2.318,6.015-3.435c0.285-0.155,0.788-0.202,1.053-0.055c3.964,2.232,7.908,4.507,11.857,6.771
		c0.084,0.05,0.149,0.124,0.294,0.245c-1.153,0.668-2.25,1.309-3.357,1.938c-2.859,1.64-5.719,3.288-8.598,4.893
		c-0.311,0.172-0.852,0.268-1.128,0.115c-3.999-2.243-7.968-4.533-11.947-6.815C3.875,47.366,3.841,47.306,3.729,47.184z"/>
	<path fill-rule="evenodd" clip-rule="evenodd" d="M54.341,8.001c-4.107,2.36-8.167,4.697-12.234,7.006
		c-0.201,0.115-0.587,0.096-0.797-0.022c-4.045-2.292-8.075-4.606-12.191-6.964c0.219-0.178,0.368-0.33,0.547-0.433
		c3.771-2.168,7.545-4.342,11.339-6.475c0.332-0.186,0.918-0.274,1.221-0.105c3.881,2.174,7.738,4.401,11.596,6.619
		C53.987,7.723,54.134,7.852,54.341,8.001z"/>
	<path fill-rule="evenodd" clip-rule="evenodd" d="M79.713,47.282c-4.11,2.362-8.144,4.687-12.194,6.981
		c-0.221,0.124-0.646,0.095-0.88-0.034c-4.021-2.278-8.022-4.585-12.128-6.942c0.25-0.188,0.426-0.353,0.627-0.47
		c3.751-2.153,7.503-4.31,11.274-6.427c0.33-0.185,0.918-0.27,1.219-0.101c3.947,2.208,7.863,4.473,11.783,6.726
		C79.499,47.062,79.561,47.145,79.713,47.282z"/>
	<path fill-rule="evenodd" clip-rule="evenodd" d="M27.016,11.593c3.259,1.901,6.389,3.729,9.522,5.556
		c0.826,0.482,1.686,0.919,2.469,1.461c0.296,0.203,0.592,0.646,0.598,0.982c0.04,4.394,0.023,8.789,0.021,13.183
		c0,0.126-0.029,0.253-0.059,0.518c-0.373-0.196-0.687-0.346-0.986-0.517c-3.636-2.084-7.277-4.161-10.896-6.278
		c-0.334-0.195-0.722-0.654-0.728-0.995c-0.052-4.46-0.035-8.921-0.035-13.382C26.921,11.998,26.964,11.873,27.016,11.593z"/>
	<path fill-rule="evenodd" clip-rule="evenodd" d="M56.537,11.65c0,4.695,0.006,9.286-0.021,13.876c0,0.268-0.189,0.652-0.409,0.78
		c-4.021,2.332-8.06,4.633-12.205,7.003c-0.028-0.273-0.063-0.449-0.063-0.625c-0.006-4.329-0.014-8.656,0.017-12.984
		c0.003-0.354,0.208-0.87,0.484-1.034c3.912-2.33,7.854-4.611,11.791-6.903C56.208,11.72,56.309,11.713,56.537,11.65z"/>
	<path fill-rule="evenodd" clip-rule="evenodd" d="M18.437,72.511c0-1.199,0-2.344,0-3.488c0.003-3.338-0.008-6.678,0.032-10.015
		c0.006-0.373,0.245-0.918,0.543-1.093c3.844-2.257,7.719-4.459,11.585-6.674c0.136-0.078,0.284-0.124,0.55-0.236
		c0,1.684,0,3.259,0,4.833c0,2.908,0.017,5.816-0.021,8.725c-0.003,0.357-0.193,0.878-0.469,1.036
		c-3.93,2.299-7.891,4.548-11.849,6.807C18.731,72.448,18.633,72.457,18.437,72.511z"/>
	<path fill-rule="evenodd" clip-rule="evenodd" d="M52.296,50.942c2.793,1.597,5.365,3.064,7.939,4.538
		c1.375,0.785,2.768,1.545,4.113,2.376c0.306,0.188,0.636,0.628,0.639,0.956c0.04,4.525,0.029,9.053,0.029,13.768
		c-0.4-0.2-0.708-0.336-0.998-0.5c-3.637-2.086-7.264-4.188-10.918-6.248c-0.598-0.337-0.808-0.711-0.805-1.393
		c0.025-4.065,0.006-8.13,0-12.196C52.296,51.884,52.296,51.524,52.296,50.942z"/>
	<path fill-rule="evenodd" clip-rule="evenodd" d="M69.222,72.537c0-4.658-0.003-9.214,0.016-13.773
		c0.003-0.248,0.137-0.613,0.33-0.726c4.044-2.354,8.104-4.678,12.289-7.076c0.028,0.411,0.063,0.689,0.063,0.965
		c0,4.229,0.009,8.459-0.026,12.688c-0.006,0.346-0.232,0.85-0.511,1.011c-3.901,2.283-7.831,4.521-11.755,6.766
		C69.548,72.439,69.451,72.457,69.222,72.537z"/>
	<path fill-rule="evenodd" clip-rule="evenodd" d="M1.525,50.944c1.464,0.835,2.744,1.563,4.021,2.295
		c2.661,1.522,5.328,3.038,7.969,4.591c0.313,0.186,0.693,0.605,0.696,0.919c0.043,4.551,0.029,9.104,0.029,13.828
		c-0.406-0.207-0.719-0.348-1.012-0.518c-3.663-2.094-7.33-4.183-10.975-6.306C1.937,65.57,1.56,65.153,1.557,64.84
		C1.514,60.291,1.525,55.739,1.525,50.944z"/>
</g>
</svg>
