<?xml version="1.0" encoding="utf-8"?>
<!-- Generator: Adobe Illustrator 16.0.3, SVG Export Plug-In . SVG Version: 6.00 Build 0)  -->
<!DOCTYPE svg PUBLIC "-//W3C//DTD SVG 1.1//EN" "http://www.w3.org/Graphics/SVG/1.1/DTD/svg11.dtd">
<svg version="1.1" id="Ebene_1" xmlns="http://www.w3.org/2000/svg" xmlns:xlink="http://www.w3.org/1999/xlink" x="0px" y="0px"
	 width="85.04px" height="85.039px" viewBox="0 0 85.04 85.039" enable-background="new 0 0 85.04 85.039" xml:space="preserve">
<g>
	<path fill-rule="evenodd" clip-rule="evenodd" fill="#1D1D1B" d="M42.599-0.001C65.996-0.009,85.035,19.06,85.04,42.516
		C85.05,66.002,65.994,85.051,42.499,85.04C19.055,85.03-0.01,65.983,0,42.582C0.011,18.992,19.004,0.007,42.599-0.001z
		 M42.542,75.569c18.283-0.017,33.006-14.73,33.029-33.014C75.592,24.235,60.83,9.462,42.504,9.471
		C24.181,9.477,9.443,24.259,9.472,42.593C9.503,60.862,24.266,75.582,42.542,75.569z"/>
	<path fill-rule="evenodd" clip-rule="evenodd" fill="#1D1D1B" d="M42.616,18.876c2.198,0.001,2.244-0.003,2.429,2.113
		c0.583,6.726,1.15,13.452,1.672,20.181c0.091,1.189,0.408,2.159,1.195,3.094c3.765,4.499,7.452,9.062,11.204,13.573
		c0.498,0.604,0.599,0.985-0.045,1.531c-0.702,0.594-1.349,1.261-1.958,1.95c-0.487,0.554-0.837,0.583-1.441,0.098
		c-5.667-4.549-11.355-9.074-17.062-13.575c-0.597-0.469-0.809-0.943-0.742-1.68c0.416-4.74,0.798-9.481,1.195-14.224
		c0.328-3.897,0.715-7.789,0.961-11.69c0.072-1.113,0.382-1.549,1.484-1.379C41.871,18.922,42.248,18.876,42.616,18.876z"/>
</g>
</svg>
