<?xml version="1.0" encoding="utf-8"?>
<!-- Generator: Adobe Illustrator 16.0.3, SVG Export Plug-In . SVG Version: 6.00 Build 0)  -->
<!DOCTYPE svg PUBLIC "-//W3C//DTD SVG 1.1//EN" "http://www.w3.org/Graphics/SVG/1.1/DTD/svg11.dtd">
<svg version="1.1" id="Ebene_1" xmlns="http://www.w3.org/2000/svg" xmlns:xlink="http://www.w3.org/1999/xlink" x="0px" y="0px"
	 width="85.04px" height="85.039px" viewBox="0 0 85.04 85.039" enable-background="new 0 0 85.04 85.039" xml:space="preserve">
<g>
	<path fill-rule="evenodd" clip-rule="evenodd" d="M13.94,73.646c0.592,0.047,1.029,0.111,1.468,0.113
		c4.954,0.007,9.907-0.026,14.861,0.031c1.133,0.013,1.471-0.324,1.459-1.459c-0.056-5.307-0.064-10.615-0.013-15.921
		c0.051-5.391,2.949-9.38,7.843-10.541c7.771-1.85,13.879,3.354,13.821,10.435c-0.042,5.206-0.009,10.412-0.009,15.619
		c0,0.545,0,1.091,0,1.745c0.636,0.037,1.124,0.091,1.614,0.091c4.852,0.009,9.703-0.035,14.557,0.035
		c1.269,0.018,1.614-0.356,1.612-1.614c-0.047-11.271-0.022-22.544-0.033-33.817c-0.002-1.207,0.117-2.264,1.628-2.417
		c1.33-0.133,2.124,0.525,2.14,1.896c0.031,2.83,0.013,5.662,0.011,8.492c0,9.2,0.002,18.399-0.007,27.6
		c-0.002,2.572-1.031,3.619-3.536,3.621c-6.473,0.007-12.943,0.005-19.414-0.004c-2.002-0.003-2.304-0.293-2.306-2.267
		c-0.012-6.317,0.022-12.637-0.016-18.954c-0.035-6.167-5.595-8.298-10.269-6.42c-2.715,1.091-3.888,3.415-3.895,6.3
		c-0.018,6.269-0.006,12.537-0.011,18.806c0,2.258-0.277,2.539-2.517,2.542c-6.419,0.004-12.839,0.006-19.258,0
		c-2.437-0.003-3.493-1.059-3.495-3.52c-0.004-11.932-0.002-23.861,0.007-35.791c0.002-1.683,0.53-2.312,1.874-2.309
		c1.348,0.004,1.878,0.637,1.88,2.313c0.004,11.17,0.002,22.341,0.002,33.513C13.94,72.359,13.94,72.956,13.94,73.646z"/>
	<path fill-rule="evenodd" clip-rule="evenodd" d="M85.303,35.382c-0.026,1.772-1.229,2.665-2.419,2.178
		c-0.734-0.3-1.393-0.808-2.04-1.281c-12.36-9.029-24.723-18.052-37.047-27.13c-1.02-0.751-1.609-0.666-2.576,0.044
		c-12.535,9.215-25.105,18.382-37.667,27.56c-0.366,0.267-0.765,0.726-1.131,0.709c-0.774-0.034-1.854-0.088-2.215-0.574
		c-0.361-0.486-0.202-1.601,0.102-2.271c0.26-0.57,1.036-0.92,1.604-1.336c12.803-9.364,25.606-18.725,38.41-28.086
		c2.191-1.6,2.24-1.592,4.462,0.033c13.005,9.515,26.017,19.02,39.006,28.554C84.469,34.278,84.966,35.019,85.303,35.382z"/>
</g>
</svg>
