<?xml version="1.0" encoding="utf-8"?>
<!-- Generator: Adobe Illustrator 16.0.3, SVG Export Plug-In . SVG Version: 6.00 Build 0)  -->
<!DOCTYPE svg PUBLIC "-//W3C//DTD SVG 1.1//EN" "http://www.w3.org/Graphics/SVG/1.1/DTD/svg11.dtd">
<svg version="1.1" id="Ebene_1" xmlns="http://www.w3.org/2000/svg" xmlns:xlink="http://www.w3.org/1999/xlink" x="0px" y="0px"
	 width="85.04px" height="85.039px" viewBox="0 0 85.04 85.039" enable-background="new 0 0 85.04 85.039" xml:space="preserve">
<g>
	<g>
		<path d="M42.519,52.703c-0.302,0-0.604-0.005-0.906-0.011c-0.271-0.005-0.542-0.009-0.813-0.009c-3.265,0-5.72-1.771-7.763-3.429
			c-2.564-2.082-4.522-4.934-5.982-8.72c-0.188-0.485-0.587-1.014-1.008-1.574c-0.219-0.291-0.437-0.581-0.639-0.876
			c-1.706-2.502-3.656-5.931-3.618-10.305c0.013-1.646,0.205-3.556,1.522-5.239c-0.043,0.047,0.012-0.116,0.047-0.58
			c0.065-0.875,0.103-1.754,0.141-2.632c0.067-1.575,0.137-3.205,0.366-4.83C24.752,8.203,28.46,3.656,34.585,1.348
			c2.094-0.79,4.36-1.223,6.733-1.284l0.604-0.104l0.711,0.012c0.434,0.051,0.867,0.096,1.303,0.141
			c0.992,0.102,2.02,0.207,3.046,0.389c3.33,0.592,6.008,1.771,8.188,3.603c1.532,1.289,2.482,2.795,2.902,4.606
			c0.088,0.384,0.269,0.769,0.47,1.008c1.463,1.739,2.304,3.844,2.572,6.436c0.186,1.79,0.251,3.51,0.318,5.573
			c0.02,0.612,0.163,1.035,0.494,1.459c0.571,0.727,0.945,1.724,0.996,2.661c0.273,4.907-0.9,8.958-3.587,12.383
			c-0.855,1.089-1.5,2.415-2.184,3.817c-0.221,0.455-0.442,0.909-0.67,1.354c-2.075,4.059-5.181,6.938-9.232,8.558
			c-1.064,0.429-2.177,0.581-3.219,0.681C43.529,52.689,43.024,52.703,42.519,52.703z M42.125,3.573
			c-0.225,0.051-0.449,0.095-0.707,0.103c-1.974,0.051-3.841,0.405-5.557,1.053c-4.954,1.865-7.707,5.226-8.418,10.274
			c-0.204,1.451-0.268,2.923-0.334,4.481c-0.039,0.917-0.079,1.833-0.147,2.748c-0.062,0.826-0.206,1.773-0.805,2.537
			c-0.614,0.785-0.743,1.746-0.754,3.042c-0.023,2.631,0.898,5.171,2.989,8.236c0.171,0.25,0.356,0.495,0.541,0.74
			c0.525,0.699,1.121,1.489,1.492,2.444c1.246,3.229,2.799,5.522,4.891,7.217c1.701,1.382,3.401,2.622,5.487,2.622
			c0.293,0,0.584,0.006,0.874,0.011c0.673,0.011,1.345,0.025,2.014-0.037c0.771-0.074,1.574-0.179,2.217-0.438
			c3.266-1.306,5.671-3.545,7.36-6.849c0.219-0.426,0.429-0.858,0.64-1.291c0.736-1.511,1.497-3.074,2.59-4.467
			c2.151-2.742,3.047-5.903,2.82-9.954c-0.011-0.2-0.115-0.481-0.233-0.631c-0.804-1.032-1.216-2.199-1.259-3.571
			c-0.054-1.646-0.114-3.512-0.303-5.316c-0.191-1.85-0.761-3.315-1.742-4.482c-0.571-0.678-1.008-1.573-1.225-2.52
			c-0.24-1.032-0.782-1.876-1.707-2.653c-1.683-1.415-3.807-2.334-6.496-2.812c-0.896-0.16-1.812-0.253-2.783-0.353
			c-0.418-0.043-0.834-0.086-1.25-0.134H42.125z"/>
	</g>
	<g>
		<path fill-rule="evenodd" clip-rule="evenodd" d="M3.242,79.744c-0.388-6.374,1.301-12.088,4.74-17.321
			c1.696-2.578,3.914-4.596,6.694-5.882c4.425-2.046,8.92-3.94,13.373-5.921c0.543-0.243,0.931-0.145,1.333,0.235
			c1.205,1.135,2.354,2.339,3.639,3.372c2.797,2.244,5.951,3.732,9.614,3.642c4.013-0.102,7.393-1.798,10.293-4.508
			c0.905-0.847,1.757-1.754,2.675-2.592c0.197-0.181,0.625-0.324,0.849-0.235c7.831,3.119,11.296,4.462,15.603,7.152
			c3.216,2.01,5.297,4.961,6.819,8.333c1.5,3.328,2.642,6.774,2.9,10.46c0.214,3.069,0.192,3.159-2.698,4.194
			c-4.777,1.71-9.729,2.644-14.751,3.218c-9.865,1.126-19.761,1.383-29.683,1.056c-5.935-0.195-11.85-0.583-17.716-1.536
			C12.241,82.651,7.666,81.468,3.242,79.744z"/>
	</g>
</g>
</svg>
