<?xml version="1.0" encoding="utf-8"?>
<!-- Generator: Adobe Illustrator 16.0.3, SVG Export Plug-In . SVG Version: 6.00 Build 0)  -->
<!DOCTYPE svg PUBLIC "-//W3C//DTD SVG 1.1//EN" "http://www.w3.org/Graphics/SVG/1.1/DTD/svg11.dtd">
<svg version="1.1" id="Ebene_1" xmlns="http://www.w3.org/2000/svg" xmlns:xlink="http://www.w3.org/1999/xlink" x="0px" y="0px"
	 width="85.04px" height="85.039px" viewBox="0 0 85.04 85.039" enable-background="new 0 0 85.04 85.039" xml:space="preserve">
<g>
	<path fill-rule="evenodd" clip-rule="evenodd" d="M0.835,85.039c0.11-0.482,0.179-0.981,0.335-1.447
		c5.047-15.025,7.24-30.465,6.613-46.29C7.292,24.913,5.052,12.833,1.055,1.088C0.934,0.741,0.904,0.363,0.835,0
		c28.261,0,56.526,0,84.789,0c0,28.346,0,56.691,0,85.039C57.361,85.039,29.096,85.039,0.835,85.039z M43.103,30.721
		c0,2.914,0,5.715,0,8.514c0,3.335,0,3.335,3.355,3.335c1.987,0,2.367-0.369,2.37-2.322c0.003-7.584,0.003-15.169,0.003-22.757
		c0-3.397,0-3.397-3.455-3.387c-1.868,0.005-2.286,0.423-2.284,2.284c0,3.091,0,6.182,0,9.343c-3.731,0-7.36,0-11.108,0
		c0-2.694,0-5.325,0-7.955c0-3.708,0-3.708-3.675-3.671c-1.608,0.015-2.07,0.476-2.07,2.115c-0.008,4.36-0.002,8.719-0.002,13.077
		c0,3.772-0.008,7.543,0.002,11.315c0.006,1.479,0.483,1.938,1.96,1.954c0.63,0.008,1.257,0.011,1.887,0
		c1.38-0.022,1.859-0.496,1.884-1.916c0.024-1.465,0.006-2.934,0.006-4.399c0-1.829,0-3.656,0-5.531
		C35.734,30.721,39.327,30.721,43.103,30.721z M60.074,26.695c0-0.844,0.003-1.374,0-1.904c-0.008-2.934-0.005-5.867-0.031-8.799
		c-0.014-1.399-0.508-1.857-1.909-1.886c-0.418-0.009-0.839-0.001-1.257-0.001c-1.922,0.007-2.29,0.368-2.29,2.26
		c-0.002,7.543,0,15.084,0,22.627c0,3.67,0.03,3.699,3.724,3.571c1.25-0.044,1.732-0.504,1.748-1.775
		c0.023-1.842-0.011-3.688,0.023-5.53c0.008-0.389,0.1-0.869,0.338-1.14c1.376-1.558,2.808-3.066,4.3-4.681
		c2.003,3.239,3.941,6.367,5.874,9.494c2.736,4.425,1.874,3.542,6.621,3.612c0.444,0.008,1.15-0.158,1.278-0.447
		c0.147-0.338-0.109-0.955-0.352-1.352c-1.04-1.718-2.145-3.401-3.222-5.099c-2.174-3.42-4.349-6.843-6.538-10.296
		c1.896-2.134,3.729-4.201,5.56-6.271c1.054-1.19,2.123-2.372,3.145-3.592c0.217-0.26,0.429-0.737,0.324-0.983
		c-0.092-0.226-0.608-0.36-0.946-0.384c-0.79-0.051-1.603,0.067-2.386-0.035c-1.729-0.217-2.93,0.539-4.031,1.786
		c-2.196,2.477-4.475,4.879-6.718,7.31C62.316,24.273,61.304,25.365,60.074,26.695z M20.481,28.444h0.002c0-3.642,0-7.282,0-10.925
		c0-3.423,0-3.423-3.402-3.415c-1.959,0.005-2.354,0.394-2.356,2.34c-0.005,7.492-0.008,14.985-0.013,22.477
		c0,3.666,0,3.666,3.667,3.643c1.651-0.011,2.094-0.435,2.099-2.066C20.484,36.48,20.481,32.463,20.481,28.444z"/>
	<path fill-rule="evenodd" clip-rule="evenodd" fill="#FFFFFF" d="M43.103,30.721c-3.776,0-7.369,0-11.127,0
		c0,1.875,0,3.702,0,5.531c0,1.466,0.019,2.935-0.006,4.399c-0.024,1.42-0.504,1.894-1.884,1.916c-0.63,0.011-1.257,0.008-1.887,0
		c-1.478-0.017-1.955-0.475-1.96-1.954c-0.01-3.772-0.002-7.543-0.002-11.315c0-4.358-0.005-8.717,0.002-13.077
		c0-1.639,0.462-2.101,2.07-2.115c3.675-0.036,3.675-0.036,3.675,3.671c0,2.629,0,5.26,0,7.955c3.748,0,7.377,0,11.108,0
		c0-3.162,0-6.252,0-9.343c-0.002-1.861,0.416-2.279,2.284-2.284c3.455-0.01,3.455-0.01,3.455,3.387c0,7.587,0,15.172-0.003,22.757
		c-0.003,1.953-0.383,2.322-2.37,2.322c-3.355,0-3.355,0-3.355-3.335C43.103,36.437,43.103,33.635,43.103,30.721z"/>
	<path fill-rule="evenodd" clip-rule="evenodd" fill="#FFFFFF" d="M60.074,26.695c1.23-1.33,2.242-2.421,3.255-3.514
		c2.243-2.431,4.521-4.833,6.718-7.31c1.102-1.247,2.303-2.002,4.031-1.786c0.783,0.102,1.596-0.016,2.386,0.035
		c0.338,0.024,0.854,0.158,0.946,0.384c0.104,0.247-0.107,0.723-0.324,0.983c-1.021,1.22-2.091,2.402-3.145,3.592
		c-1.83,2.07-3.664,4.136-5.56,6.271c2.189,3.453,4.364,6.876,6.538,10.296c1.077,1.697,2.182,3.38,3.222,5.099
		c0.242,0.396,0.499,1.014,0.352,1.352c-0.128,0.289-0.834,0.455-1.278,0.447c-4.747-0.07-3.885,0.813-6.621-3.612
		c-1.933-3.127-3.871-6.255-5.874-9.494c-1.492,1.614-2.924,3.123-4.3,4.681c-0.238,0.271-0.33,0.751-0.338,1.14
		c-0.034,1.841,0,3.688-0.023,5.53c-0.016,1.271-0.498,1.731-1.748,1.775c-3.693,0.128-3.724,0.099-3.724-3.571
		c0-7.543-0.002-15.084,0-22.627c0-1.892,0.368-2.253,2.29-2.26c0.418,0,0.839-0.008,1.257,0.001
		c1.401,0.028,1.896,0.486,1.909,1.886c0.026,2.933,0.023,5.865,0.031,8.799C60.077,25.321,60.074,25.851,60.074,26.695z"/>
	<path fill-rule="evenodd" clip-rule="evenodd" fill="#FFFFFF" d="M20.481,28.444c0,4.019,0.002,8.036-0.003,12.054
		c-0.005,1.632-0.448,2.056-2.099,2.066c-3.667,0.022-3.667,0.022-3.667-3.643c0.005-7.492,0.008-14.985,0.013-22.477
		c0.002-1.946,0.396-2.335,2.356-2.34c3.402-0.008,3.402-0.008,3.402,3.415c0,3.643,0,7.284,0,10.925H20.481z"/>
</g>
</svg>
