<?xml version="1.0" encoding="utf-8"?>
<!-- Generator: Adobe Illustrator 16.0.3, SVG Export Plug-In . SVG Version: 6.00 Build 0)  -->
<!DOCTYPE svg PUBLIC "-//W3C//DTD SVG 1.1//EN" "http://www.w3.org/Graphics/SVG/1.1/DTD/svg11.dtd">
<svg version="1.1" id="Ebene_1" xmlns="http://www.w3.org/2000/svg" xmlns:xlink="http://www.w3.org/1999/xlink" x="0px" y="0px"
	 width="85.04px" height="85.039px" viewBox="0 0 85.04 85.039" enable-background="new 0 0 85.04 85.039" xml:space="preserve">
<g>
	<g>
		<path fill-rule="evenodd" clip-rule="evenodd" d="M69.755,84.783c-18.157,0-36.315,0-54.471,0
			c-1.448-0.852-1.848-2.124-1.845-3.77c0.035-25.663,0.035-51.325,0-76.989c-0.002-1.646,0.397-2.917,1.845-3.769
			c18.155,0,36.313,0,54.471,0c1.445,0.852,1.848,2.123,1.845,3.769c-0.039,25.664-0.039,51.326,0,76.989
			C71.603,82.659,71.201,83.932,69.755,84.783z M66.219,79.471c0-24.736,0-49.286,0-73.846c-2.672,0-5.214,0-7.891,0
			c0,0.79,0.01,1.472-0.003,2.154c-0.088,5.102-3.298,8.265-8.401,8.273c-5.069,0.007-10.136,0.021-15.206-0.006
			c-4.521-0.023-7.781-3.186-7.994-7.725c-0.042-0.864-0.005-1.734-0.005-2.671c-2.751,0-5.332,0-7.884,0c0,24.686,0,49.235,0,73.82
			C34.679,79.471,50.375,79.471,66.219,79.471z M31.905,5.613c0,1.04-0.094,1.863,0.017,2.657c0.219,1.539,1.082,2.529,2.729,2.536
			c5.249,0.02,10.497,0.021,15.746,0c1.646-0.008,2.512-1.004,2.721-2.543c0.115-0.838,0.022-1.707,0.022-2.649
			C45.999,5.613,39.035,5.613,31.905,5.613z"/>
		<path fill-rule="evenodd" clip-rule="evenodd" d="M34.778,74.12c0-1.695,0-3.293,0-5.013c5.121,0,10.21,0,15.446,0
			c0,1.644,0,3.278,0,5.013C45.064,74.12,39.977,74.12,34.778,74.12z"/>
	</g>
	<polygon fill-rule="evenodd" clip-rule="evenodd" points="46.492,33.587 55.514,34.704 49.142,41.184 50.867,50.105 42.735,46.047 
		34.78,50.444 36.129,41.456 29.487,35.252 38.454,33.756 42.303,25.524 	"/>
</g>
</svg>
