<?xml version="1.0" encoding="utf-8"?>
<!-- Generator: Adobe Illustrator 16.0.3, SVG Export Plug-In . SVG Version: 6.00 Build 0)  -->
<!DOCTYPE svg PUBLIC "-//W3C//DTD SVG 1.1//EN" "http://www.w3.org/Graphics/SVG/1.1/DTD/svg11.dtd">
<svg version="1.1" id="Ebene_1" xmlns="http://www.w3.org/2000/svg" xmlns:xlink="http://www.w3.org/1999/xlink" x="0px" y="0px"
	 width="841.89px" height="595.281px" viewBox="0 0 841.89 595.281" enable-background="new 0 0 841.89 595.281"
	 xml:space="preserve">
<path fill="#27A987" d="M212.139,252.181L486.546,0H0v595.283h403.921L212.139,419.035
	C162.001,372.962,162.001,298.253,212.139,252.181z"/>
<path fill="#71C1C2" d="M315.057,360.242c-0.122-1.287-0.633-2.545-1.029-4.086c-0.991,0.617-1.678,0.785-1.829,1.174
	c-5.232,12.896-50.428,23.098-61.265,30.975c-14.192,10.318-21.054,23.213-24.362,32.668v-18.758
	c1.096-8.123,3.744-13.564,11.094-22.402c6.299-7.572,46.021-14.451,53.065-21.469c5.722-5.691,10.334-11.85,12.356-19.611
	c3.361-12.916,3.917-56.485,2.637-69.638c-0.107-1.091-0.573-2.158-0.916-3.454c-0.899,0.518-1.518,0.663-1.654,0.991
	c-4.689,10.882-45.289,19.499-55.019,26.156c-12.795,8.753-18.957,19.705-21.915,27.705v-20.123
	c0.977-6.772,3.309-11.303,9.806-18.663c5.575-6.313,40.697-12.057,46.936-17.905c5.057-4.744,9.128-9.868,10.92-16.342
	c2.974-10.761,3.462-47.061,2.332-58.026c-0.098-0.908-0.502-1.792-0.814-2.883c-0.786,0.435-1.335,0.556-1.463,0.832
	c-4.149,9.075-40.036,16.25-48.646,21.794c-11.262,7.269-16.715,16.335-19.346,22.994v-14.094c0.884-5.773,2.981-9.647,8.822-15.924
	c5.025-5.392,36.611-10.286,42.217-15.274c4.545-4.049,8.211-8.417,9.82-13.946c2.678-9.183,3.118-40.156,2.097-49.521
	c-0.083-0.77-0.449-1.532-0.731-2.456c-0.702,0.366-1.198,0.473-1.312,0.709c-3.729,7.748-36.015,13.863-43.756,18.599
	c-10.156,6.216-15.06,13.986-17.417,19.674l0.025-3.683v-4.095v-2.684v-0.808c0,0,0.388-6.709,1.446-8.982
	c2.73-5.796,15.366-21.657,16.525-26.522c0.991-4.148,8.652-25.829,0.046-37.155c-3.956-5.206-14.437-23.289-18.797-27.979
	c-0.365-0.389-0.884-0.64-1.426-1.029c-0.252,0.503-0.504,0.777-0.465,0.946c0.967,5.833-13.239,24.326-17.783,28.87
	c-17.887,17.887-0.229,48.7-0.22,48.7l0.555,0.74c0,0,14.031,15.343,16.037,24.288c0.319,1.426,0.557,4.811,0.725,8.388
	c-2.511-5.574-7.398-12.803-16.976-18.667c-7.731-4.735-40.025-10.851-43.755-18.606c-0.107-0.229-0.602-0.335-1.312-0.702
	c-0.282,0.931-0.648,1.678-0.733,2.456c-1.021,9.365-0.579,40.338,2.099,49.521c1.608,5.521,5.277,9.897,9.82,13.946
	c5.612,4.988,37.2,9.883,42.216,15.274c5.848,6.285,7.953,10.15,8.83,15.924l-0.007,14.094c-2.624-6.659-8.083-15.726-19.347-22.994
	c-8.603-5.544-44.502-12.719-48.65-21.794c-0.115-0.275-0.663-0.397-1.456-0.832c-0.313,1.091-0.718,1.976-0.816,2.883
	c-1.138,10.966-0.642,47.266,2.333,58.026c1.793,6.474,5.872,11.598,10.927,16.351c6.23,5.848,41.362,11.576,46.935,17.889
	c6.5,7.367,8.84,11.896,9.809,18.669V320.5c-2.96-8-9.121-18.959-21.924-27.712c-9.73-6.657-50.322-15.274-55.019-26.156
	c-0.137-0.335-0.756-0.473-1.648-1c-0.357,1.312-0.816,2.371-0.921,3.455c-1.288,13.16-0.726,56.73,2.639,69.636
	c2.021,7.771,6.634,13.93,12.353,19.621c7.046,7.018,46.773,13.896,53.075,21.467c7.35,8.84,9.997,14.281,11.094,22.404v18.758
	c-3.31-9.455-10.18-22.35-24.364-32.668c-10.836-7.877-56.039-18.078-61.263-30.975c-0.16-0.389-0.848-0.557-1.838-1.166
	c-0.396,1.533-0.907,2.791-1.021,4.078c-1.433,15.588-0.817,67.168,2.929,82.457c2.257,9.195,7.389,16.486,13.756,23.213
	c7.854,8.311,52.09,16.461,59.106,25.43c8.181,10.463,11.125,16.906,12.352,26.521v77.408l1.976,0.008h1.389l1.981-0.008v-77.408
	c1.213-9.615,4.165-16.059,12.338-26.521c7.024-8.969,51.261-17.119,59.106-25.424c6.369-6.732,11.5-14.023,13.756-23.219
	C315.864,427.41,316.483,375.83,315.057,360.242z"/>
<g>
	<g>
		<path id="SVGID_2_" fill="#FFFFFF" d="M139.891,511.162c4.291,4.291,4.291,11.25,0.001,15.543l-38.861,38.861
			c-4.293,4.291-11.253,4.291-15.544,0l-38.861-38.861c-4.291-4.293-4.292-11.252,0-15.545L85.485,472.3
			c4.293-4.293,11.252-4.291,15.545,0L139.891,511.162z"/>
	</g>
	<g>
		<g>
			<g>
				<path id="SVGID_1_" fill="#FFFFFF" d="M139.891,511.162c4.291,4.291,4.291,11.25,0.001,15.543l-38.861,38.861
					c-4.293,4.291-11.253,4.291-15.544,0l-38.861-38.861c-4.291-4.293-4.292-11.252,0-15.545L85.485,472.3
					c4.293-4.293,11.252-4.291,15.545,0L139.891,511.162z"/>
			</g>
		</g>
	</g>
</g>
</svg>
