<?xml version="1.0" encoding="utf-8"?>
<!-- Generator: Adobe Illustrator 16.0.3, SVG Export Plug-In . SVG Version: 6.00 Build 0)  -->
<!DOCTYPE svg PUBLIC "-//W3C//DTD SVG 1.1//EN" "http://www.w3.org/Graphics/SVG/1.1/DTD/svg11.dtd">
<svg version="1.1" id="Ebene_1" xmlns="http://www.w3.org/2000/svg" xmlns:xlink="http://www.w3.org/1999/xlink" x="0px" y="0px"
	 width="841.89px" height="595.281px" viewBox="0 0 841.89 595.281" enable-background="new 0 0 841.89 595.281"
	 xml:space="preserve">
<path fill="#27A987" d="M212.139,252.181L486.546,0H0v595.281h403.921L212.139,419.033
	C162.001,372.96,162.001,298.253,212.139,252.181z"/>
<g>
	<g>
		<path id="SVGID_6_" fill="#FFFFFF" d="M139.891,511.16c4.291,4.291,4.291,11.25,0.001,15.543l-38.861,38.861
			c-4.293,4.291-11.253,4.291-15.544,0l-38.861-38.861c-4.291-4.293-4.292-11.252,0-15.545l38.859-38.859
			c4.293-4.293,11.252-4.291,15.545,0L139.891,511.16z"/>
	</g>
	<g>
		<g>
			<g>
				<path id="SVGID_1_" fill="#FFFFFF" d="M139.891,511.16c4.291,4.291,4.291,11.25,0.001,15.543l-38.861,38.861
					c-4.293,4.291-11.253,4.291-15.544,0l-38.861-38.861c-4.291-4.293-4.292-11.252,0-15.545l38.859-38.859
					c4.293-4.293,11.252-4.291,15.545,0L139.891,511.16z"/>
			</g>
		</g>
	</g>
</g>
<path fill="none" stroke="#000000" stroke-width="2" stroke-miterlimit="10" d="M263.923,217.541
	c0.557,0.066,1.119,0.105,1.67,0.203c1.06,0.188,2.048,0.557,2.886,1.261c0.453,0.38,0.77,0.838,0.906,1.428
	c0.057,0.245,0.173,0.502,0.334,0.693c0.525,0.626,0.767,1.359,0.847,2.146c0.075,0.71,0.099,1.426,0.122,2.141
	c0.013,0.373,0.11,0.688,0.345,0.987c0.137,0.174,0.23,0.426,0.241,0.648c0.091,1.605-0.229,3.078-1.258,4.391
	c-0.501,0.637-0.822,1.417-1.197,2.148c-0.72,1.409-1.789,2.44-3.26,3.028c-0.333,0.134-0.708,0.185-1.069,0.22
	c-0.399,0.038-0.802,0.014-1.203,0.013c-1.048,0-1.846-0.573-2.605-1.189c-1.018-0.827-1.666-1.915-2.136-3.133
	c-0.156-0.402-0.475-0.743-0.724-1.108c-0.751-1.101-1.313-2.272-1.299-3.644c0.003-0.578,0.064-1.139,0.448-1.628
	c0.12-0.154,0.15-0.403,0.166-0.613c0.072-0.962,0.061-1.935,0.195-2.888c0.319-2.276,1.619-3.798,3.762-4.604
	c0.775-0.293,1.584-0.438,2.416-0.459c0.071-0.002,0.145-0.026,0.218-0.041C263.793,217.541,263.858,217.541,263.923,217.541z"/>
<path fill="#71C1C2" d="M315.057,360.24c-0.122-1.287-0.633-2.545-1.029-4.086c-0.991,0.616-1.678,0.785-1.829,1.174
	c-5.232,12.896-50.428,23.098-61.265,30.975c-14.192,10.318-21.054,23.213-24.362,32.668v-18.758
	c1.096-8.123,3.744-13.563,11.094-22.404c6.299-7.569,46.021-14.448,53.065-21.467c5.722-5.69,10.334-11.85,12.356-19.61
	c3.361-12.916,3.917-56.483,2.637-69.637c-0.107-1.09-0.573-2.157-0.916-3.453c-0.899,0.518-1.518,0.663-1.654,0.991
	c-4.689,10.882-45.289,19.499-55.019,26.157c-12.795,8.75-18.957,19.704-21.915,27.704V300.37
	c0.977-6.772,3.309-11.301,9.806-18.663c5.575-6.313,40.697-12.057,46.936-17.904c5.057-4.744,9.128-9.868,10.92-16.342
	c2.974-10.761,3.462-47.061,2.332-58.026c-0.098-0.908-0.502-1.792-0.814-2.883c-0.786,0.435-1.335,0.556-1.463,0.832
	c-4.149,9.075-40.036,16.25-48.646,21.794c-11.262,7.269-16.715,16.335-19.346,22.994v-14.094c0.884-5.773,2.981-9.647,8.822-15.924
	c5.025-5.392,36.611-10.286,42.217-15.274c4.545-4.049,8.211-8.417,9.82-13.946c2.678-9.183,3.118-40.156,2.097-49.521
	c-0.083-0.77-0.449-1.532-0.731-2.456c-0.702,0.366-1.198,0.473-1.312,0.709c-3.729,7.748-36.015,13.863-43.756,18.599
	c-10.156,6.216-15.06,13.986-17.417,19.674l0.025-3.683v-4.095v-2.684v-0.808c0,0,0.388-6.709,1.446-8.982
	c2.73-5.796,15.366-21.657,16.525-26.522c0.991-4.148,8.652-25.829,0.046-37.155c-3.956-5.206-14.437-23.289-18.797-27.979
	c-0.365-0.389-0.884-0.64-1.426-1.029c-0.252,0.503-0.504,0.777-0.465,0.946c0.967,5.833-13.239,24.326-17.783,28.87
	c-17.887,17.887-0.229,48.7-0.22,48.7l0.555,0.74c0,0,14.031,15.343,16.037,24.288c0.319,1.426,0.557,4.811,0.725,8.388
	c-2.511-5.574-7.398-12.803-16.976-18.667c-7.731-4.735-40.025-10.851-43.755-18.606c-0.107-0.229-0.602-0.335-1.312-0.702
	c-0.282,0.931-0.648,1.678-0.733,2.456c-1.021,9.365-0.579,40.338,2.099,49.521c1.608,5.521,5.277,9.897,9.82,13.946
	c5.612,4.988,37.2,9.883,42.216,15.274c5.848,6.285,7.953,10.15,8.83,15.924l-0.007,14.094c-2.624-6.659-8.083-15.726-19.347-22.994
	c-8.603-5.544-44.502-12.719-48.65-21.794c-0.115-0.275-0.663-0.397-1.456-0.832c-0.313,1.091-0.718,1.976-0.816,2.883
	c-1.138,10.966-0.642,47.266,2.333,58.026c1.793,6.474,5.872,11.598,10.927,16.35c6.23,5.849,41.362,11.576,46.935,17.889
	c6.5,7.369,8.84,11.897,9.809,18.669v20.131c-2.96-8-9.121-18.959-21.924-27.71c-9.73-6.658-50.322-15.275-55.019-26.157
	c-0.137-0.335-0.756-0.474-1.648-0.999c-0.357,1.312-0.816,2.371-0.921,3.454c-1.288,13.161-0.726,56.728,2.639,69.636
	c2.021,7.771,6.634,13.928,12.353,19.62c7.046,7.017,46.773,13.896,53.075,21.468c7.35,8.838,9.997,14.28,11.094,22.403v18.759
	c-3.31-9.455-10.18-22.351-24.364-32.669c-10.836-7.877-56.039-18.077-61.263-30.975c-0.16-0.389-0.848-0.557-1.838-1.166
	c-0.396,1.533-0.907,2.791-1.021,4.078c-1.433,15.588-0.817,67.168,2.929,82.457c2.257,9.195,7.389,16.486,13.756,23.213
	c7.854,8.312,52.09,16.461,59.106,25.43c8.181,10.464,11.125,16.906,12.352,26.521v77.408l1.976,0.008h1.389l1.981-0.008v-77.408
	c1.213-9.615,4.165-16.062,12.338-26.521c7.024-8.969,51.261-17.118,59.106-25.424c6.369-6.731,11.5-14.022,13.756-23.219
	C315.864,427.408,316.483,375.828,315.057,360.24z"/>
</svg>
