<?xml version="1.0" encoding="utf-8"?>
<!-- Generator: Adobe Illustrator 16.0.3, SVG Export Plug-In . SVG Version: 6.00 Build 0)  -->
<!DOCTYPE svg PUBLIC "-//W3C//DTD SVG 1.1//EN" "http://www.w3.org/Graphics/SVG/1.1/DTD/svg11.dtd">
<svg version="1.1" id="Ebene_1" xmlns="http://www.w3.org/2000/svg" xmlns:xlink="http://www.w3.org/1999/xlink" x="0px" y="0px"
	 width="841.89px" height="595.28px" viewBox="0 0 841.89 595.28" enable-background="new 0 0 841.89 595.28" xml:space="preserve">
<path fill-rule="evenodd" clip-rule="evenodd" fill="#71C1C2" d="M315.057,360.242c-0.123-1.287-0.633-2.545-1.03-4.086
	c-0.991,0.617-1.677,0.785-1.829,1.174c-5.233,12.896-50.428,23.098-61.265,30.975c-14.192,10.318-21.053,23.213-24.362,32.668
	v-18.758c1.095-8.123,3.744-13.566,11.094-22.404c6.299-7.572,46.021-14.451,53.065-21.467c5.721-5.693,10.334-11.85,12.356-19.613
	c3.361-12.916,3.917-56.484,2.637-69.637c-0.108-1.091-0.573-2.158-0.916-3.453c-0.9,0.518-1.518,0.662-1.654,0.99
	c-4.689,10.883-45.289,19.5-55.019,26.157c-12.794,8.753-18.958,19.705-21.915,27.705v-20.123
	c0.977-6.774,3.309-11.302,9.805-18.663c5.575-6.314,40.698-12.057,46.936-17.905c5.057-4.743,9.128-9.868,10.921-16.342
	c2.973-10.761,3.461-47.061,2.332-58.026c-0.098-0.908-0.503-1.792-0.815-2.883c-0.786,0.435-1.335,0.556-1.463,0.832
	c-4.15,9.075-40.037,16.25-48.646,21.794c-11.262,7.269-16.715,16.335-19.346,22.994v-14.094c0.884-5.773,2.981-9.647,8.822-15.924
	c5.026-5.392,36.612-10.286,42.217-15.274c4.545-4.049,8.211-8.417,9.821-13.946c2.678-9.183,3.119-40.156,2.097-49.521
	c-0.083-0.77-0.449-1.532-0.732-2.456c-0.702,0.366-1.198,0.473-1.312,0.709c-3.728,7.748-36.014,13.863-43.755,18.599
	c-10.156,6.216-15.06,13.986-17.417,19.674l0.026-3.683v-4.095v-2.684v-0.808c0,0,0.388-6.709,1.446-8.982
	c2.73-5.796,15.366-21.657,16.525-26.522c0.992-4.148,8.652-25.829,0.046-37.155c-3.956-5.206-14.437-23.289-18.797-27.979
	c-0.366-0.389-0.883-0.64-1.425-1.029c-0.252,0.503-0.505,0.777-0.465,0.946c0.967,5.833-13.239,24.326-17.783,28.87
	c-17.887,17.887-0.23,48.7-0.22,48.7l0.554,0.74c0,0,14.032,15.343,16.038,24.288c0.319,1.426,0.557,4.811,0.725,8.388
	c-2.511-5.574-7.398-12.803-16.976-18.667c-7.731-4.735-40.026-10.851-43.755-18.606c-0.107-0.229-0.602-0.335-1.312-0.702
	c-0.282,0.931-0.648,1.678-0.733,2.456c-1.021,9.365-0.58,40.338,2.099,49.521c1.608,5.521,5.277,9.897,9.82,13.946
	c5.612,4.988,37.2,9.883,42.216,15.274c5.847,6.285,7.953,10.15,8.829,15.924l-0.007,14.094
	c-2.624-6.659-8.083-15.726-19.346-22.994c-8.603-5.544-44.502-12.719-48.65-21.794c-0.116-0.275-0.663-0.397-1.457-0.832
	c-0.313,1.091-0.717,1.976-0.816,2.883c-1.137,10.966-0.642,47.266,2.333,58.026c1.792,6.474,5.872,11.599,10.927,16.351
	c6.23,5.848,41.362,11.576,46.934,17.889c6.5,7.368,8.84,11.896,9.809,18.67V320.5c-2.96-8-9.121-18.959-21.924-27.712
	c-9.73-6.657-50.322-15.274-55.019-26.157c-0.137-0.334-0.756-0.473-1.648-0.999c-0.357,1.312-0.816,2.371-0.921,3.454
	c-1.288,13.161-0.726,56.729,2.639,69.637c2.02,7.771,6.634,13.928,12.352,19.621c7.046,7.016,46.774,13.895,53.075,21.467
	c7.35,8.838,9.998,14.281,11.094,22.404v18.758c-3.31-9.455-10.18-22.35-24.364-32.668c-10.836-7.877-56.039-18.078-61.263-30.975
	c-0.159-0.389-0.848-0.557-1.837-1.166c-0.396,1.533-0.907,2.791-1.021,4.078c-1.433,15.588-0.817,67.168,2.929,82.457
	c2.257,9.195,7.388,16.486,13.755,23.213c7.855,8.311,52.09,16.461,59.107,25.43c8.181,10.463,11.125,16.906,12.351,26.521v77.408
	l1.976,0.008h1.389l1.981-0.008v-77.408c1.213-9.615,4.165-16.059,12.337-26.521c7.024-8.969,51.261-17.119,59.107-25.424
	c6.369-6.732,11.5-14.023,13.756-23.219C315.865,427.41,316.483,375.83,315.057,360.242z"/>
</svg>
