<?xml version="1.0" encoding="utf-8"?>
<!-- Generator: Adobe Illustrator 16.0.3, SVG Export Plug-In . SVG Version: 6.00 Build 0)  -->
<!DOCTYPE svg PUBLIC "-//W3C//DTD SVG 1.1//EN" "http://www.w3.org/Graphics/SVG/1.1/DTD/svg11.dtd">
<svg version="1.1" id="Ebene_1" xmlns="http://www.w3.org/2000/svg" xmlns:xlink="http://www.w3.org/1999/xlink" x="0px" y="0px"
	 width="841.89px" height="595.281px" viewBox="0 0 841.89 595.281" enable-background="new 0 0 841.89 595.281"
	 xml:space="preserve">
<path opacity="0.5" fill="#71C1C2" d="M486.545,0L212.139,252.181c-50.137,46.071-50.137,120.778,0,166.85l191.777,176.241H841.89V0
	H486.545z"/>
<path opacity="0.6" fill-rule="evenodd" clip-rule="evenodd" fill="#FFFFFF" d="M457.246,527.816
	c-0.032-0.332-0.165-0.661-0.269-1.061c-0.26,0.158-0.438,0.202-0.476,0.305c-1.361,3.347-13.095,5.995-15.911,8.042
	c-3.683,2.681-5.465,6.028-6.323,8.485v-4.878c0.285-2.104,0.973-3.517,2.883-5.812c1.636-1.97,11.949-3.754,13.779-5.576
	c1.482-1.477,2.684-3.076,3.209-5.093c0.869-3.354,1.016-14.664,0.683-18.081c-0.03-0.285-0.147-0.56-0.237-0.896
	c-0.237,0.133-0.396,0.17-0.433,0.255c-1.215,2.826-11.757,5.063-14.282,6.794c-3.32,2.273-4.925,5.116-5.689,7.191v-5.228
	c0.25-1.754,0.857-2.931,2.545-4.846c1.446-1.638,10.566-3.125,12.186-4.644c1.316-1.233,2.371-2.567,2.835-4.245
	c0.773-2.793,0.898-12.221,0.608-15.066c-0.027-0.235-0.135-0.467-0.213-0.749c-0.202,0.112-0.348,0.147-0.376,0.216
	c-1.082,2.356-10.399,4.22-12.635,5.661c-2.923,1.887-4.34,4.24-5.022,5.969v-3.66c0.229-1.499,0.775-2.502,2.292-4.133
	c1.302-1.401,9.506-2.674,10.96-3.97c1.181-1.048,2.134-2.187,2.549-3.619c0.694-2.383,0.813-10.425,0.547-12.86
	c-0.021-0.2-0.116-0.395-0.188-0.635c-0.184,0.097-0.317,0.121-0.342,0.182c-0.973,2.015-9.353,3.604-11.365,4.829
	c-2.635,1.617-3.909,3.635-4.521,5.111l0.01-0.954l-0.002-1.067v-0.696v-0.206c0,0,0.101-1.745,0.375-2.332
	c0.708-1.509,3.988-5.627,4.29-6.887c0.256-1.081,0.35-2.109,0.01-3.071c-0.559-1.603-3.743-6.049-4.878-7.267
	c-0.094-0.098-0.229-0.165-0.371-0.267c-0.063,0.131-0.127,0.199-0.119,0.245c0.253,1.517-3.952,5.963-4.618,7.496
	c-1.572,3.622-0.062,6.067-0.059,6.067l0.145,0.192c0,0,3.642,3.986,4.165,6.309c0.082,0.368,0.146,1.248,0.189,2.176
	c-0.651-1.45-1.922-3.326-4.409-4.846c-2.009-1.229-10.392-2.818-11.359-4.833c-0.03-0.059-0.16-0.085-0.344-0.182
	c-0.069,0.24-0.168,0.435-0.186,0.635c-0.267,2.434-0.155,10.478,0.541,12.862c0.418,1.435,1.372,2.569,2.55,3.622
	c1.459,1.293,9.657,2.563,10.963,3.965c1.519,1.631,2.064,2.634,2.294,4.133l-0.007,3.66c-0.678-1.729-2.096-4.087-5.02-5.969
	c-2.233-1.441-11.557-3.305-12.633-5.661c-0.029-0.068-0.17-0.102-0.378-0.214c-0.08,0.283-0.187,0.512-0.213,0.749
	c-0.293,2.844-0.166,12.271,0.607,15.064c0.466,1.678,1.524,3.012,2.835,4.245c1.62,1.516,10.739,3.006,12.188,4.644
	c1.687,1.915,2.295,3.092,2.547,4.846v5.228c-0.769-2.073-2.368-4.918-5.693-7.191c-2.529-1.73-13.065-3.963-14.289-6.794
	c-0.032-0.087-0.192-0.122-0.424-0.255c-0.093,0.336-0.21,0.613-0.239,0.896c-0.334,3.419-0.19,14.73,0.684,18.083
	c0.522,2.015,1.722,3.614,3.206,5.091c1.834,1.822,12.143,3.606,13.782,5.579c1.911,2.292,2.596,3.704,2.881,5.809v4.878
	c-0.86-2.457-2.644-5.805-6.325-8.488c-2.814-2.044-14.553-4.689-15.907-8.039c-0.045-0.103-0.218-0.146-0.476-0.305
	c-0.104,0.399-0.238,0.729-0.27,1.061c-0.374,4.048-0.208,17.44,0.762,21.409c0.587,2.391,1.919,4.279,3.571,6.031
	c2.038,2.155,13.526,4.271,15.349,6.6c2.121,2.719,2.889,4.392,3.206,6.886v20.101h0.515h0.359h0.514v-20.101
	c0.314-2.496,1.082-4.167,3.206-6.884c1.823-2.33,13.308-4.446,15.347-6.602c1.652-1.752,2.983-3.641,3.57-6.031
	C457.451,545.254,457.616,531.862,457.246,527.816z"/>
<path opacity="0.7" fill-rule="evenodd" clip-rule="evenodd" fill="#FFFFFF" d="M629.03,519.871
	c-0.024-0.262-0.129-0.521-0.211-0.835c-0.204,0.124-0.346,0.159-0.374,0.239c-1.072,2.635-10.311,4.721-12.527,6.332
	c-2.899,2.11-4.303,4.746-4.979,6.681v-3.841c0.225-1.656,0.766-2.769,2.27-4.575c1.288-1.552,9.408-2.956,10.849-4.391
	c1.167-1.163,2.112-2.422,2.526-4.01c0.685-2.64,0.8-11.546,0.537-14.235c-0.023-0.225-0.115-0.441-0.187-0.706
	c-0.187,0.105-0.312,0.135-0.34,0.201c-0.957,2.225-9.257,3.987-11.246,5.35c-2.613,1.79-3.877,4.028-4.479,5.662v-4.116
	c0.197-1.381,0.675-2.308,2.003-3.815c1.14-1.289,8.319-2.46,9.595-3.656c1.036-0.971,1.866-2.021,2.231-3.342
	c0.609-2.199,0.708-9.622,0.479-11.862c-0.021-0.186-0.105-0.368-0.168-0.59c-0.159,0.089-0.273,0.116-0.296,0.17
	c-0.852,1.855-8.188,3.322-9.947,4.457c-2.301,1.485-3.417,3.339-3.955,4.699v-2.882c0.181-1.18,0.611-1.97,1.805-3.253
	c1.025-1.104,7.484-2.106,8.629-3.126c0.931-0.825,1.681-1.721,2.008-2.85c0.546-1.876,0.641-8.208,0.431-10.125
	c-0.017-0.157-0.092-0.311-0.149-0.5c-0.144,0.076-0.249,0.096-0.269,0.143c-0.766,1.587-7.363,2.838-8.948,3.803
	c-2.074,1.273-3.077,2.861-3.56,4.024l0.009-0.752l-0.002-0.84v-0.549v-0.161c0,0,0.079-1.374,0.295-1.836
	c0.558-1.188,3.141-4.431,3.378-5.423c0.201-0.852,0.275-1.661,0.008-2.418c-0.44-1.262-2.947-4.763-3.841-5.722
	c-0.074-0.077-0.181-0.13-0.292-0.21c-0.05,0.104-0.1,0.157-0.095,0.193c0.2,1.194-3.111,4.694-3.636,5.901
	c-1.237,2.853-0.048,4.777-0.046,4.777l0.113,0.151c0,0,2.868,3.139,3.28,4.968c0.064,0.289,0.114,0.982,0.148,1.713
	c-0.513-1.142-1.513-2.619-3.471-3.815c-1.582-0.968-8.182-2.219-8.943-3.806c-0.023-0.046-0.127-0.066-0.271-0.143
	c-0.055,0.189-0.132,0.343-0.146,0.5c-0.21,1.916-0.122,8.249,0.426,10.127c0.329,1.129,1.08,2.022,2.008,2.852
	c1.149,1.018,7.604,2.019,8.632,3.122c1.195,1.283,1.626,2.073,1.806,3.253l-0.005,2.882c-0.534-1.36-1.649-3.217-3.951-4.699
	c-1.759-1.135-9.1-2.602-9.947-4.457c-0.023-0.054-0.135-0.08-0.299-0.168c-0.063,0.223-0.146,0.402-0.167,0.59
	c-0.23,2.238-0.13,9.661,0.478,11.86c0.368,1.321,1.201,2.371,2.233,3.342c1.274,1.193,8.455,2.367,9.596,3.656
	c1.328,1.508,1.807,2.435,2.006,3.815v4.116c-0.605-1.633-1.865-3.872-4.483-5.662c-1.991-1.362-10.286-3.12-11.25-5.35
	c-0.024-0.068-0.151-0.096-0.333-0.201c-0.074,0.265-0.166,0.483-0.188,0.706c-0.263,2.691-0.149,11.598,0.538,14.236
	c0.411,1.587,1.356,2.846,2.524,4.009c1.444,1.435,9.561,2.839,10.852,4.393c1.504,1.805,2.043,2.917,2.268,4.573v3.841
	c-0.678-1.935-2.081-4.57-4.98-6.684c-2.216-1.608-11.458-3.691-12.523-6.329c-0.035-0.08-0.172-0.115-0.375-0.239
	c-0.082,0.314-0.188,0.573-0.213,0.835c-0.293,3.187-0.163,13.731,0.601,16.855c0.462,1.883,1.511,3.369,2.812,4.748
	c1.604,1.698,10.649,3.363,12.084,5.197c1.67,2.14,2.274,3.457,2.525,5.421v15.826h0.404h0.283h0.404v-15.826
	c0.248-1.966,0.853-3.281,2.524-5.42c1.436-1.835,10.478-3.5,12.083-5.198c1.301-1.379,2.349-2.865,2.811-4.748
	C629.192,533.6,629.322,523.055,629.03,519.871z"/>
<path opacity="0.8" fill-rule="evenodd" clip-rule="evenodd" fill="#FFFFFF" d="M805.086,547.234
	c-0.024-0.262-0.129-0.521-0.211-0.835c-0.204,0.124-0.346,0.159-0.374,0.239c-1.072,2.635-10.311,4.721-12.527,6.332
	c-2.899,2.11-4.303,4.746-4.979,6.681v-3.841c0.225-1.656,0.766-2.769,2.27-4.575c1.288-1.552,9.408-2.956,10.849-4.391
	c1.167-1.163,2.112-2.422,2.526-4.01c0.685-2.64,0.8-11.546,0.537-14.235c-0.023-0.225-0.115-0.441-0.187-0.706
	c-0.187,0.105-0.312,0.135-0.34,0.201c-0.957,2.225-9.257,3.987-11.246,5.35c-2.613,1.79-3.877,4.028-4.479,5.662v-4.116
	c0.197-1.381,0.675-2.308,2.003-3.815c1.14-1.289,8.319-2.46,9.595-3.656c1.036-0.971,1.866-2.021,2.231-3.342
	c0.609-2.199,0.708-9.622,0.479-11.862c-0.021-0.186-0.105-0.368-0.168-0.59c-0.159,0.089-0.273,0.116-0.296,0.17
	c-0.852,1.855-8.188,3.322-9.947,4.457c-2.301,1.485-3.417,3.339-3.955,4.699v-2.882c0.181-1.18,0.611-1.97,1.805-3.253
	c1.025-1.104,7.484-2.106,8.629-3.126c0.931-0.825,1.681-1.721,2.008-2.85c0.546-1.876,0.641-8.208,0.431-10.125
	c-0.017-0.157-0.092-0.311-0.149-0.5c-0.144,0.076-0.249,0.096-0.269,0.143c-0.766,1.587-7.363,2.838-8.948,3.803
	c-2.074,1.273-3.077,2.861-3.56,4.024l0.009-0.752l-0.002-0.84v-0.549v-0.161c0,0,0.079-1.374,0.295-1.836
	c0.558-1.188,3.141-4.431,3.378-5.423c0.201-0.852,0.275-1.661,0.008-2.418c-0.44-1.262-2.947-4.763-3.841-5.722
	c-0.074-0.077-0.181-0.13-0.292-0.21c-0.05,0.104-0.1,0.157-0.095,0.193c0.2,1.194-3.111,4.694-3.636,5.901
	c-1.237,2.853-0.048,4.777-0.046,4.777l0.113,0.151c0,0,2.868,3.139,3.28,4.968c0.064,0.289,0.114,0.982,0.148,1.713
	c-0.513-1.142-1.513-2.619-3.471-3.815c-1.582-0.968-8.182-2.219-8.943-3.806c-0.023-0.046-0.127-0.066-0.271-0.143
	c-0.055,0.189-0.132,0.343-0.146,0.5c-0.21,1.916-0.122,8.249,0.426,10.127c0.329,1.129,1.08,2.022,2.008,2.852
	c1.149,1.018,7.604,2.019,8.632,3.122c1.195,1.283,1.626,2.073,1.806,3.253l-0.005,2.882c-0.534-1.36-1.649-3.217-3.951-4.699
	c-1.759-1.135-9.1-2.602-9.947-4.457c-0.023-0.054-0.135-0.08-0.299-0.168c-0.063,0.223-0.146,0.402-0.167,0.59
	c-0.23,2.238-0.13,9.661,0.478,11.86c0.368,1.321,1.201,2.371,2.233,3.342c1.274,1.193,8.455,2.367,9.596,3.656
	c1.328,1.508,1.807,2.435,2.006,3.815v4.116c-0.605-1.633-1.865-3.872-4.483-5.662c-1.991-1.362-10.286-3.12-11.25-5.35
	c-0.024-0.068-0.151-0.096-0.333-0.201c-0.074,0.265-0.166,0.483-0.188,0.706c-0.263,2.691-0.149,11.598,0.538,14.236
	c0.411,1.587,1.356,2.846,2.524,4.009c1.444,1.435,9.561,2.839,10.852,4.393c1.504,1.805,2.043,2.917,2.268,4.573v3.841
	c-0.678-1.935-2.081-4.57-4.98-6.684c-2.216-1.608-11.458-3.691-12.523-6.329c-0.035-0.08-0.172-0.115-0.375-0.239
	c-0.082,0.314-0.188,0.573-0.213,0.835c-0.293,3.187-0.163,13.731,0.601,16.855c0.462,1.883,1.511,3.369,2.812,4.748
	c1.604,1.698,10.649,3.363,12.084,5.197c1.67,2.14,2.274,3.457,2.525,5.421v15.826h0.404h0.283h0.404v-15.826
	c0.248-1.966,0.853-3.281,2.524-5.42c1.436-1.835,10.478-3.5,12.083-5.198c1.301-1.379,2.349-2.865,2.811-4.748
	C805.249,560.963,805.378,550.418,805.086,547.234z"/>
<path opacity="0.4" fill-rule="evenodd" clip-rule="evenodd" fill="#FFFFFF" d="M235.073,347.107
	c-0.019-0.206-0.102-0.409-0.166-0.657c-0.16,0.098-0.271,0.126-0.294,0.188c-0.843,2.071-8.106,3.712-9.849,4.979
	c-2.28,1.659-3.383,3.731-3.915,5.253v-3.021c0.177-1.302,0.602-2.177,1.785-3.597c1.013-1.22,7.397-2.324,8.529-3.452
	c0.917-0.914,1.661-1.904,1.986-3.152c0.538-2.075,0.629-9.078,0.422-11.192c-0.019-0.177-0.091-0.347-0.147-0.555
	c-0.146,0.082-0.245,0.105-0.267,0.158c-0.752,1.749-7.278,3.135-8.842,4.205c-2.055,1.408-3.048,3.168-3.521,4.452v-3.236
	c0.155-1.086,0.53-1.814,1.575-3c0.896-1.014,6.541-1.934,7.543-2.874c0.814-0.764,1.467-1.589,1.754-2.628
	c0.479-1.729,0.557-7.564,0.377-9.326c-0.017-0.146-0.083-0.289-0.132-0.464c-0.125,0.07-0.215,0.092-0.233,0.134
	c-0.669,1.459-6.437,2.612-7.821,3.504c-1.809,1.168-2.687,2.625-3.109,3.695v-2.267c0.142-0.927,0.48-1.548,1.419-2.558
	c0.806-0.867,5.884-1.655,6.784-2.457c0.732-0.649,1.321-1.354,1.579-2.24c0.429-1.476,0.503-6.454,0.338-7.961
	c-0.013-0.124-0.072-0.244-0.117-0.394c-0.113,0.061-0.196,0.075-0.211,0.112c-0.602,1.248-5.789,2.231-7.035,2.99
	c-1.631,1.001-2.419,2.249-2.798,3.164l0.007-0.592l-0.001-0.66v-0.432v-0.126c0,0,0.062-1.081,0.231-1.443
	c0.438-0.935,2.469-3.483,2.656-4.264c0.158-0.67,0.216-1.307,0.006-1.901c-0.346-0.992-2.317-3.744-3.02-4.498
	c-0.059-0.062-0.142-0.103-0.23-0.166c-0.039,0.082-0.078,0.124-0.074,0.152c0.157,0.939-2.446,3.691-2.858,4.64
	c-0.973,2.243-0.038,3.757-0.036,3.757l0.089,0.118c0,0,2.255,2.468,2.579,3.906c0.051,0.228,0.09,0.772,0.117,1.347
	c-0.403-0.897-1.189-2.06-2.729-3c-1.244-0.761-6.433-1.744-7.032-2.992c-0.019-0.036-0.1-0.052-0.213-0.112
	c-0.043,0.149-0.104,0.27-0.115,0.394c-0.165,1.507-0.096,6.485,0.335,7.962c0.259,0.888,0.849,1.59,1.579,2.242
	c0.903,0.8,5.978,1.587,6.787,2.454c0.939,1.01,1.278,1.631,1.419,2.558l-0.004,2.267c-0.42-1.07-1.297-2.529-3.106-3.695
	c-1.383-0.892-7.154-2.045-7.821-3.504c-0.019-0.042-0.106-0.063-0.235-0.132c-0.049,0.175-0.115,0.316-0.131,0.464
	c-0.181,1.76-0.102,7.596,0.375,9.324c0.29,1.039,0.944,1.864,1.756,2.628c1.002,0.938,6.647,1.86,7.544,2.874
	c1.044,1.186,1.42,1.914,1.577,3v3.236c-0.476-1.284-1.467-3.044-3.525-4.452c-1.566-1.07-8.087-2.453-8.845-4.205
	c-0.019-0.055-0.119-0.076-0.262-0.158c-0.059,0.208-0.13,0.38-0.148,0.555c-0.207,2.116-0.117,9.118,0.423,11.193
	c0.323,1.247,1.066,2.237,1.985,3.151c1.135,1.128,7.517,2.232,8.532,3.453c1.182,1.419,1.606,2.294,1.783,3.596v3.021
	c-0.533-1.521-1.636-3.594-3.916-5.255c-1.742-1.265-9.008-2.902-9.846-4.977c-0.027-0.063-0.135-0.091-0.294-0.188
	c-0.065,0.248-0.147,0.451-0.167,0.657c-0.23,2.505-0.128,10.796,0.472,13.252c0.363,1.48,1.188,2.648,2.21,3.733
	c1.261,1.335,8.373,2.644,9.5,4.086c1.313,1.682,1.789,2.718,1.986,4.262v12.443h0.318h0.223h0.318V372.44
	c0.195-1.546,0.67-2.58,1.984-4.261c1.129-1.443,8.238-2.752,9.5-4.087c1.023-1.085,1.847-2.253,2.21-3.733
	C235.2,357.901,235.302,349.611,235.073,347.107z"/>
<path opacity="0.3" fill-rule="evenodd" clip-rule="evenodd" fill="#FFFFFF" d="M344.46,385.768
	c-0.016-0.178-0.087-0.354-0.143-0.567c-0.139,0.084-0.235,0.108-0.254,0.162c-0.728,1.79-7.004,3.208-8.51,4.302
	c-1.97,1.434-2.923,3.225-3.382,4.539v-2.609c0.153-1.125,0.52-1.881,1.542-3.108c0.875-1.054,6.391-2.008,7.37-2.982
	c0.793-0.79,1.435-1.646,1.716-2.724c0.465-1.793,0.543-7.844,0.365-9.671c-0.016-0.153-0.078-0.3-0.127-0.479
	c-0.126,0.071-0.211,0.091-0.23,0.137c-0.65,1.512-6.289,2.709-7.64,3.634c-1.775,1.217-2.634,2.737-3.042,3.847v-2.797
	c0.134-0.938,0.458-1.567,1.36-2.592c0.774-0.876,5.652-1.671,6.518-2.483c0.704-0.66,1.268-1.373,1.516-2.271
	c0.414-1.493,0.481-6.536,0.326-8.059c-0.015-0.125-0.072-0.249-0.114-0.4c-0.108,0.061-0.186,0.079-0.201,0.115
	c-0.578,1.261-5.562,2.258-6.757,3.027c-1.563,1.01-2.321,2.269-2.687,3.193v-1.958c0.123-0.801,0.416-1.338,1.226-2.21
	c0.697-0.75,5.084-1.431,5.862-2.123c0.633-0.562,1.142-1.17,1.364-1.936c0.371-1.275,0.435-5.577,0.292-6.879
	c-0.011-0.107-0.062-0.211-0.102-0.34c-0.097,0.052-0.169,0.064-0.183,0.097c-0.52,1.078-5.002,1.928-6.079,2.584
	c-1.409,0.864-2.09,1.943-2.418,2.733l0.006-0.511l-0.001-0.57v-0.373v-0.109c0,0,0.053-0.934,0.2-1.247
	c0.379-0.808,2.134-3.01,2.295-3.684c0.136-0.579,0.187-1.129,0.005-1.644c-0.299-0.856-2.002-3.234-2.609-3.886
	c-0.051-0.054-0.123-0.089-0.199-0.144c-0.034,0.07-0.067,0.106-0.064,0.132c0.136,0.812-2.113,3.189-2.47,4.009
	c-0.841,1.938-0.032,3.246-0.031,3.246l0.077,0.102c0,0,1.949,2.133,2.229,3.375c0.043,0.197,0.077,0.668,0.101,1.164
	c-0.348-0.775-1.028-1.779-2.357-2.593c-1.075-0.657-5.558-1.507-6.076-2.585c-0.016-0.031-0.086-0.045-0.185-0.097
	c-0.037,0.129-0.089,0.232-0.1,0.34c-0.143,1.302-0.083,5.604,0.29,6.879c0.224,0.768,0.733,1.374,1.364,1.938
	c0.781,0.691,5.166,1.371,5.864,2.121c0.812,0.872,1.104,1.409,1.226,2.21l-0.003,1.958c-0.363-0.925-1.121-2.186-2.685-3.193
	c-1.194-0.77-6.182-1.767-6.757-3.027c-0.016-0.036-0.091-0.055-0.203-0.113c-0.043,0.15-0.1,0.273-0.114,0.4
	c-0.157,1.521-0.088,6.563,0.325,8.057c0.25,0.897,0.816,1.61,1.517,2.271c0.866,0.811,5.744,1.607,6.519,2.483
	c0.902,1.024,1.227,1.654,1.363,2.592v2.797c-0.412-1.109-1.268-2.63-3.046-3.847c-1.353-0.925-6.988-2.12-7.643-3.634
	c-0.017-0.047-0.103-0.065-0.226-0.137c-0.051,0.18-0.113,0.328-0.128,0.479c-0.178,1.828-0.101,7.878,0.366,9.672
	c0.279,1.077,0.921,1.933,1.715,2.723c0.981,0.975,6.495,1.929,7.372,2.983c1.021,1.227,1.388,1.982,1.541,3.107v2.609
	c-0.46-1.314-1.414-3.105-3.384-4.54c-1.505-1.093-7.784-2.508-8.507-4.301c-0.024-0.054-0.117-0.078-0.254-0.162
	c-0.056,0.214-0.127,0.39-0.145,0.567c-0.199,2.164-0.111,9.328,0.408,11.45c0.314,1.279,1.026,2.289,1.91,3.226
	c1.09,1.154,7.234,2.284,8.209,3.531c1.135,1.453,1.545,2.348,1.716,3.682v10.752h0.275h0.192h0.274v-10.752
	c0.168-1.335,0.579-2.229,1.715-3.682c0.975-1.247,7.118-2.377,8.208-3.531c0.884-0.937,1.595-1.946,1.909-3.226
	C344.571,395.094,344.659,387.932,344.46,385.768z"/>
<path opacity="0.4" fill-rule="evenodd" clip-rule="evenodd" fill="#FFFFFF" d="M581.091,319.602
	c-0.016-0.178-0.088-0.354-0.143-0.567c-0.139,0.084-0.235,0.108-0.255,0.162c-0.728,1.79-7.004,3.208-8.51,4.302
	c-1.97,1.434-2.923,3.225-3.382,4.539v-2.609c0.152-1.125,0.52-1.881,1.541-3.108c0.875-1.054,6.392-2.008,7.37-2.982
	c0.793-0.79,1.435-1.646,1.716-2.724c0.465-1.793,0.544-7.844,0.365-9.671c-0.016-0.153-0.078-0.3-0.127-0.479
	c-0.127,0.071-0.211,0.091-0.23,0.137c-0.65,1.512-6.289,2.709-7.64,3.634c-1.775,1.217-2.634,2.737-3.042,3.847v-2.797
	c0.133-0.938,0.457-1.567,1.359-2.592c0.775-0.876,5.652-1.671,6.519-2.483c0.704-0.66,1.268-1.373,1.517-2.271
	c0.413-1.493,0.48-6.536,0.325-8.059c-0.015-0.125-0.071-0.249-0.114-0.4c-0.108,0.061-0.186,0.079-0.201,0.115
	c-0.578,1.261-5.563,2.258-6.758,3.027c-1.563,1.01-2.32,2.269-2.687,3.193v-1.958c0.123-0.801,0.415-1.338,1.226-2.21
	c0.697-0.75,5.085-1.431,5.862-2.123c0.633-0.562,1.142-1.17,1.364-1.936c0.371-1.275,0.436-5.577,0.293-6.879
	c-0.012-0.107-0.063-0.211-0.102-0.34c-0.098,0.052-0.17,0.064-0.184,0.097c-0.52,1.078-5.002,1.928-6.078,2.584
	c-1.409,0.864-2.09,1.943-2.418,2.733l0.006-0.511l-0.001-0.57v-0.373v-0.109c0,0,0.054-0.934,0.2-1.247
	c0.379-0.808,2.133-3.01,2.295-3.684c0.137-0.579,0.187-1.129,0.005-1.644c-0.3-0.856-2.003-3.234-2.608-3.886
	c-0.051-0.054-0.123-0.089-0.199-0.144c-0.033,0.07-0.067,0.106-0.064,0.132c0.137,0.812-2.113,3.189-2.47,4.009
	c-0.841,1.938-0.032,3.246-0.031,3.246l0.077,0.102c0,0,1.949,2.133,2.229,3.375c0.043,0.197,0.077,0.668,0.101,1.164
	c-0.349-0.775-1.028-1.779-2.357-2.593c-1.075-0.657-5.558-1.507-6.075-2.585c-0.017-0.031-0.087-0.045-0.186-0.097
	c-0.037,0.129-0.089,0.232-0.1,0.34c-0.143,1.302-0.082,5.604,0.29,6.879c0.224,0.768,0.733,1.374,1.364,1.938
	c0.78,0.691,5.165,1.371,5.863,2.121c0.813,0.872,1.105,1.409,1.227,2.21l-0.003,1.958c-0.363-0.925-1.12-2.186-2.685-3.193
	c-1.194-0.77-6.182-1.767-6.758-3.027c-0.016-0.036-0.091-0.055-0.202-0.113c-0.043,0.15-0.1,0.273-0.114,0.4
	c-0.156,1.521-0.088,6.563,0.325,8.057c0.25,0.897,0.815,1.61,1.517,2.271c0.866,0.811,5.744,1.607,6.52,2.483
	c0.901,1.024,1.227,1.654,1.362,2.592v2.797c-0.411-1.109-1.268-2.63-3.046-3.847c-1.354-0.925-6.988-2.12-7.643-3.634
	c-0.017-0.047-0.104-0.065-0.227-0.137c-0.051,0.18-0.112,0.328-0.128,0.479c-0.179,1.828-0.101,7.878,0.366,9.672
	c0.279,1.077,0.921,1.933,1.715,2.723c0.98,0.975,6.494,1.929,7.371,2.983c1.021,1.227,1.389,1.982,1.541,3.107v2.609
	c-0.461-1.314-1.414-3.105-3.384-4.54c-1.505-1.093-7.784-2.508-8.507-4.301c-0.024-0.054-0.117-0.078-0.255-0.162
	c-0.056,0.214-0.128,0.39-0.146,0.567c-0.198,2.164-0.11,9.328,0.408,11.45c0.314,1.279,1.026,2.289,1.91,3.226
	c1.09,1.154,7.234,2.284,8.209,3.531c1.135,1.453,1.545,2.348,1.716,3.682v10.752h0.274h0.193h0.273v-10.752
	c0.169-1.335,0.58-2.229,1.715-3.682c0.976-1.247,7.118-2.377,8.209-3.531c0.884-0.937,1.596-1.946,1.909-3.226
	C581.202,328.928,581.29,321.766,581.091,319.602z"/>
<path opacity="0.4" fill-rule="evenodd" clip-rule="evenodd" fill="#FFFFFF" d="M405.915,363.078
	c-0.016-0.178-0.088-0.354-0.143-0.567c-0.139,0.084-0.235,0.108-0.255,0.162c-0.728,1.79-7.004,3.208-8.51,4.302
	c-1.97,1.434-2.923,3.225-3.382,4.539v-2.609c0.152-1.125,0.52-1.881,1.541-3.108c0.875-1.054,6.392-2.008,7.37-2.982
	c0.793-0.79,1.435-1.646,1.716-2.724c0.465-1.793,0.544-7.844,0.365-9.671c-0.016-0.153-0.078-0.3-0.127-0.479
	c-0.127,0.071-0.211,0.091-0.23,0.137c-0.65,1.512-6.289,2.709-7.64,3.634c-1.775,1.217-2.634,2.737-3.042,3.847v-2.797
	c0.133-0.938,0.457-1.567,1.359-2.592c0.775-0.876,5.652-1.671,6.519-2.483c0.704-0.66,1.268-1.373,1.517-2.271
	c0.413-1.493,0.48-6.536,0.325-8.059c-0.015-0.125-0.071-0.249-0.114-0.4c-0.108,0.061-0.186,0.079-0.201,0.115
	c-0.578,1.261-5.563,2.258-6.758,3.027c-1.563,1.01-2.32,2.269-2.687,3.193v-1.958c0.123-0.801,0.415-1.338,1.226-2.21
	c0.697-0.75,5.085-1.431,5.862-2.123c0.633-0.562,1.142-1.17,1.364-1.936c0.371-1.275,0.436-5.577,0.293-6.879
	c-0.012-0.107-0.063-0.211-0.102-0.34c-0.098,0.052-0.17,0.064-0.184,0.097c-0.52,1.078-5.002,1.928-6.078,2.584
	c-1.409,0.864-2.09,1.943-2.418,2.733l0.006-0.511l-0.001-0.57v-0.373v-0.109c0,0,0.054-0.934,0.2-1.247
	c0.379-0.808,2.133-3.01,2.295-3.684c0.137-0.579,0.187-1.129,0.005-1.644c-0.3-0.856-2.003-3.234-2.608-3.886
	c-0.051-0.054-0.123-0.089-0.199-0.144c-0.033,0.07-0.067,0.106-0.064,0.132c0.137,0.812-2.113,3.189-2.47,4.009
	c-0.841,1.938-0.032,3.246-0.031,3.246l0.077,0.102c0,0,1.949,2.133,2.229,3.375c0.043,0.197,0.077,0.668,0.101,1.164
	c-0.349-0.775-1.028-1.779-2.357-2.593c-1.075-0.657-5.558-1.507-6.075-2.585c-0.017-0.031-0.087-0.045-0.186-0.097
	c-0.037,0.129-0.089,0.232-0.1,0.34c-0.143,1.302-0.082,5.604,0.29,6.879c0.224,0.768,0.733,1.374,1.364,1.938
	c0.78,0.691,5.165,1.371,5.863,2.121c0.813,0.872,1.105,1.409,1.227,2.21l-0.003,1.958c-0.363-0.925-1.12-2.186-2.685-3.193
	c-1.194-0.77-6.182-1.767-6.758-3.027c-0.016-0.036-0.091-0.055-0.202-0.113c-0.043,0.15-0.1,0.273-0.114,0.4
	c-0.156,1.521-0.088,6.563,0.325,8.057c0.25,0.897,0.815,1.61,1.517,2.271c0.866,0.811,5.744,1.607,6.52,2.483
	c0.901,1.024,1.227,1.654,1.362,2.592v2.797c-0.411-1.109-1.268-2.63-3.046-3.847c-1.354-0.925-6.988-2.12-7.643-3.634
	c-0.017-0.047-0.104-0.065-0.227-0.137c-0.051,0.18-0.112,0.328-0.128,0.479c-0.179,1.828-0.101,7.878,0.366,9.672
	c0.279,1.077,0.921,1.933,1.715,2.723c0.98,0.975,6.494,1.929,7.371,2.983c1.021,1.227,1.389,1.982,1.541,3.107v2.609
	c-0.461-1.314-1.414-3.105-3.384-4.54c-1.505-1.093-7.784-2.508-8.507-4.301c-0.024-0.054-0.117-0.078-0.255-0.162
	c-0.056,0.214-0.128,0.39-0.146,0.567c-0.198,2.164-0.11,9.328,0.408,11.45c0.314,1.279,1.026,2.289,1.91,3.226
	c1.09,1.154,7.234,2.284,8.209,3.531c1.135,1.453,1.545,2.348,1.716,3.682v10.752h0.274h0.193h0.273v-10.752
	c0.169-1.335,0.58-2.229,1.715-3.682c0.976-1.247,7.118-2.377,8.209-3.531c0.884-0.937,1.596-1.946,1.909-3.226
	C406.025,372.404,406.113,365.242,405.915,363.078z"/>
<path opacity="0.4" fill-rule="evenodd" clip-rule="evenodd" fill="#FFFFFF" d="M663.916,336.617
	c-0.016-0.178-0.088-0.354-0.143-0.567c-0.139,0.084-0.236,0.108-0.256,0.162c-0.727,1.79-7.004,3.208-8.51,4.302
	c-1.969,1.434-2.922,3.225-3.381,4.539v-2.609c0.152-1.125,0.52-1.881,1.541-3.108c0.875-1.054,6.391-2.008,7.369-2.982
	c0.793-0.79,1.436-1.646,1.717-2.724c0.465-1.793,0.543-7.844,0.365-9.671c-0.016-0.153-0.078-0.3-0.127-0.479
	c-0.127,0.071-0.211,0.091-0.23,0.137c-0.65,1.512-6.289,2.709-7.641,3.634c-1.775,1.217-2.633,2.737-3.041,3.847v-2.797
	c0.133-0.938,0.457-1.567,1.359-2.592c0.775-0.876,5.652-1.671,6.518-2.483c0.705-0.66,1.268-1.373,1.518-2.271
	c0.412-1.493,0.48-6.536,0.324-8.059c-0.014-0.125-0.07-0.249-0.113-0.4c-0.109,0.061-0.186,0.079-0.201,0.115
	c-0.578,1.261-5.563,2.258-6.758,3.027c-1.563,1.01-2.32,2.269-2.688,3.193v-1.958c0.123-0.801,0.416-1.338,1.227-2.21
	c0.697-0.75,5.084-1.431,5.861-2.123c0.633-0.562,1.143-1.17,1.365-1.936c0.371-1.275,0.436-5.577,0.293-6.879
	c-0.012-0.107-0.063-0.211-0.102-0.34c-0.098,0.052-0.17,0.064-0.184,0.097c-0.52,1.078-5.002,1.928-6.078,2.584
	c-1.41,0.864-2.09,1.943-2.418,2.733l0.006-0.511l-0.002-0.57v-0.373v-0.109c0,0,0.055-0.934,0.201-1.247
	c0.379-0.808,2.133-3.01,2.295-3.684c0.137-0.579,0.186-1.129,0.004-1.644c-0.299-0.856-2.002-3.234-2.607-3.886
	c-0.051-0.054-0.123-0.089-0.199-0.144c-0.033,0.07-0.068,0.106-0.064,0.132c0.137,0.812-2.113,3.189-2.471,4.009
	c-0.84,1.938-0.031,3.246-0.031,3.246l0.078,0.102c0,0,1.949,2.133,2.229,3.375c0.043,0.197,0.076,0.668,0.1,1.164
	c-0.348-0.775-1.027-1.779-2.357-2.593c-1.074-0.657-5.557-1.507-6.074-2.585c-0.018-0.031-0.088-0.045-0.186-0.097
	c-0.037,0.129-0.09,0.232-0.1,0.34c-0.143,1.302-0.082,5.604,0.289,6.879c0.225,0.768,0.734,1.374,1.365,1.938
	c0.779,0.691,5.164,1.371,5.863,2.121c0.813,0.872,1.105,1.409,1.227,2.21l-0.004,1.958c-0.363-0.925-1.119-2.186-2.684-3.193
	c-1.195-0.77-6.182-1.767-6.758-3.027c-0.016-0.036-0.092-0.055-0.203-0.113c-0.043,0.15-0.1,0.273-0.113,0.4
	c-0.156,1.521-0.088,6.563,0.324,8.057c0.25,0.897,0.816,1.61,1.518,2.271c0.865,0.811,5.744,1.607,6.52,2.483
	c0.9,1.024,1.227,1.654,1.361,2.592v2.797c-0.41-1.109-1.268-2.63-3.045-3.847c-1.354-0.925-6.988-2.12-7.643-3.634
	c-0.018-0.047-0.104-0.065-0.227-0.137c-0.051,0.18-0.113,0.328-0.129,0.479c-0.178,1.828-0.1,7.878,0.367,9.672
	c0.279,1.077,0.92,1.933,1.715,2.723c0.98,0.975,6.494,1.929,7.371,2.983c1.021,1.227,1.389,1.982,1.541,3.107v2.609
	c-0.461-1.314-1.414-3.105-3.385-4.54c-1.504-1.093-7.783-2.508-8.506-4.301c-0.025-0.054-0.117-0.078-0.256-0.162
	c-0.055,0.214-0.127,0.39-0.145,0.567c-0.199,2.164-0.111,9.328,0.408,11.45c0.314,1.279,1.025,2.289,1.91,3.226
	c1.09,1.154,7.234,2.284,8.209,3.531c1.135,1.453,1.545,2.348,1.715,3.682v10.752h0.275h0.193h0.273v-10.752
	c0.168-1.335,0.58-2.229,1.715-3.682c0.975-1.247,7.117-2.377,8.209-3.531c0.883-0.937,1.596-1.946,1.908-3.226
	C664.025,345.943,664.113,338.781,663.916,336.617z"/>
<path opacity="0.4" fill-rule="evenodd" clip-rule="evenodd" fill="#FFFFFF" d="M823.38,310.216
	c-0.016-0.178-0.088-0.354-0.143-0.567c-0.139,0.084-0.236,0.108-0.256,0.162c-0.727,1.79-7.004,3.208-8.51,4.302
	c-1.969,1.434-2.922,3.225-3.381,4.539v-2.609c0.152-1.125,0.52-1.881,1.541-3.108c0.875-1.054,6.391-2.008,7.369-2.982
	c0.793-0.79,1.436-1.646,1.717-2.724c0.465-1.793,0.543-7.844,0.365-9.671c-0.016-0.153-0.078-0.3-0.127-0.479
	c-0.127,0.071-0.211,0.091-0.23,0.137c-0.65,1.512-6.289,2.709-7.641,3.634c-1.775,1.217-2.633,2.737-3.041,3.847v-2.797
	c0.133-0.938,0.457-1.567,1.359-2.592c0.775-0.876,5.652-1.671,6.518-2.483c0.705-0.66,1.268-1.373,1.518-2.271
	c0.412-1.493,0.48-6.536,0.324-8.059c-0.014-0.125-0.07-0.249-0.113-0.4c-0.109,0.061-0.186,0.079-0.201,0.115
	c-0.578,1.261-5.563,2.258-6.758,3.027c-1.563,1.01-2.32,2.269-2.688,3.193v-1.958c0.123-0.801,0.416-1.338,1.227-2.21
	c0.697-0.75,5.084-1.431,5.861-2.123c0.633-0.562,1.143-1.17,1.365-1.936c0.371-1.275,0.436-5.577,0.293-6.879
	c-0.012-0.107-0.063-0.211-0.102-0.34c-0.098,0.052-0.17,0.064-0.184,0.097c-0.52,1.078-5.002,1.928-6.078,2.584
	c-1.41,0.864-2.09,1.943-2.418,2.733l0.006-0.511l-0.002-0.57v-0.373v-0.109c0,0,0.055-0.934,0.201-1.247
	c0.379-0.808,2.133-3.01,2.295-3.684c0.137-0.579,0.186-1.129,0.004-1.644c-0.299-0.856-2.002-3.234-2.607-3.886
	c-0.051-0.054-0.123-0.089-0.199-0.144c-0.033,0.07-0.068,0.106-0.064,0.132c0.137,0.812-2.113,3.189-2.471,4.009
	c-0.84,1.938-0.031,3.246-0.031,3.246l0.078,0.102c0,0,1.949,2.133,2.229,3.375c0.043,0.197,0.076,0.668,0.1,1.164
	c-0.348-0.775-1.027-1.779-2.357-2.593c-1.074-0.657-5.557-1.507-6.074-2.585c-0.018-0.031-0.088-0.045-0.186-0.097
	c-0.037,0.129-0.09,0.232-0.1,0.34c-0.143,1.302-0.082,5.604,0.289,6.879c0.225,0.768,0.734,1.374,1.365,1.938
	c0.779,0.691,5.164,1.371,5.863,2.121c0.813,0.872,1.105,1.409,1.227,2.21l-0.004,1.958c-0.363-0.925-1.119-2.186-2.684-3.193
	c-1.195-0.77-6.182-1.767-6.758-3.027c-0.016-0.036-0.092-0.055-0.203-0.113c-0.043,0.15-0.1,0.273-0.113,0.4
	c-0.156,1.521-0.088,6.563,0.324,8.057c0.25,0.897,0.816,1.61,1.518,2.271c0.865,0.811,5.744,1.607,6.52,2.483
	c0.9,1.024,1.227,1.654,1.361,2.592v2.797c-0.41-1.109-1.268-2.63-3.045-3.847c-1.354-0.925-6.988-2.12-7.643-3.634
	c-0.018-0.047-0.104-0.065-0.227-0.137c-0.051,0.18-0.113,0.328-0.129,0.479c-0.178,1.828-0.1,7.878,0.367,9.672
	c0.279,1.077,0.92,1.933,1.715,2.723c0.98,0.975,6.494,1.929,7.371,2.983c1.021,1.227,1.389,1.982,1.541,3.107v2.609
	c-0.461-1.314-1.414-3.105-3.385-4.54c-1.504-1.093-7.783-2.508-8.506-4.301c-0.025-0.054-0.117-0.078-0.256-0.162
	c-0.055,0.214-0.127,0.39-0.145,0.567c-0.199,2.164-0.111,9.328,0.408,11.45c0.314,1.279,1.025,2.289,1.91,3.226
	c1.09,1.154,7.234,2.284,8.209,3.531c1.135,1.453,1.545,2.348,1.715,3.682v10.752h0.275h0.193h0.273v-10.752
	c0.168-1.335,0.58-2.229,1.715-3.682c0.975-1.247,7.117-2.377,8.209-3.531c0.883-0.937,1.596-1.946,1.908-3.226
	C823.49,319.542,823.578,312.38,823.38,310.216z"/>
<path opacity="0.25" fill-rule="evenodd" clip-rule="evenodd" fill="#FFFFFF" d="M830.701,184.548
	c-0.013-0.14-0.069-0.278-0.112-0.446c-0.109,0.066-0.186,0.085-0.201,0.127c-0.572,1.409-5.513,2.525-6.698,3.386
	c-1.55,1.128-2.3,2.538-2.661,3.573v-2.054c0.119-0.885,0.408-1.48,1.213-2.447c0.689-0.829,5.03-1.581,5.801-2.347
	c0.624-0.622,1.129-1.295,1.351-2.144c0.366-1.411,0.428-6.174,0.288-7.612c-0.013-0.121-0.063-0.236-0.101-0.378
	c-0.1,0.057-0.166,0.072-0.182,0.108c-0.512,1.19-4.949,2.132-6.014,2.86c-1.397,0.958-2.072,2.155-2.395,3.028V178
	c0.105-0.738,0.36-1.234,1.07-2.04c0.611-0.69,4.449-1.316,5.131-1.955c0.556-0.52,0.998-1.081,1.195-1.788
	c0.324-1.175,0.377-5.145,0.255-6.344c-0.011-0.098-0.056-0.196-0.09-0.315c-0.086,0.048-0.146,0.063-0.158,0.091
	c-0.454,0.993-4.379,1.777-5.319,2.383c-1.229,0.795-1.826,1.786-2.115,2.514v-1.542c0.097-0.63,0.327-1.053,0.965-1.739
	c0.549-0.591,4.002-1.126,4.613-1.671c0.498-0.442,0.9-0.921,1.075-1.523c0.293-1.004,0.344-4.39,0.231-5.415
	c-0.01-0.084-0.05-0.166-0.08-0.267c-0.077,0.041-0.135,0.051-0.146,0.076c-0.408,0.849-3.937,1.518-4.783,2.034
	c-1.11,0.68-1.646,1.53-1.903,2.151l0.005-0.401l-0.003-0.449v-0.294v-0.086c0,0,0.044-0.734,0.158-0.981
	c0.299-0.636,1.68-2.369,1.807-2.899c0.108-0.456,0.146-0.889,0.004-1.294c-0.235-0.674-1.575-2.545-2.053-3.058
	c-0.04-0.042-0.098-0.07-0.156-0.113c-0.026,0.055-0.055,0.083-0.051,0.104c0.107,0.639-1.664,2.51-1.944,3.155
	c-0.662,1.525-0.025,2.555-0.025,2.555l0.062,0.08c0,0,1.534,1.679,1.754,2.657c0.034,0.155,0.06,0.526,0.078,0.917
	c-0.273-0.611-0.808-1.401-1.855-2.042c-0.845-0.517-4.374-1.186-4.781-2.034c-0.013-0.025-0.068-0.036-0.146-0.076
	c-0.028,0.102-0.07,0.183-0.078,0.267c-0.111,1.025-0.064,4.411,0.229,5.415c0.177,0.604,0.578,1.082,1.073,1.525
	c0.614,0.544,4.065,1.079,4.616,1.67c0.64,0.686,0.869,1.109,0.965,1.739l-0.002,1.542c-0.287-0.728-0.882-1.721-2.113-2.514
	c-0.94-0.605-4.865-1.39-5.319-2.383c-0.012-0.028-0.072-0.043-0.159-0.089c-0.034,0.119-0.079,0.215-0.09,0.315
	c-0.123,1.197-0.068,5.167,0.255,6.342c0.197,0.707,0.644,1.268,1.195,1.788c0.681,0.638,4.521,1.265,5.132,1.955
	c0.709,0.806,0.965,1.302,1.071,2.04v2.201c-0.323-0.873-0.997-2.07-2.396-3.028c-1.065-0.728-5.501-1.668-6.017-2.86
	c-0.013-0.037-0.08-0.051-0.178-0.108c-0.041,0.142-0.089,0.259-0.102,0.378c-0.14,1.439-0.078,6.201,0.289,7.613
	c0.219,0.849,0.724,1.521,1.35,2.144c0.771,0.767,5.111,1.518,5.803,2.348c0.804,0.965,1.093,1.561,1.213,2.446v2.054
	c-0.363-1.035-1.113-2.445-2.664-3.573c-1.185-0.861-6.128-1.974-6.696-3.386c-0.019-0.042-0.092-0.062-0.2-0.127
	c-0.044,0.168-0.101,0.307-0.115,0.446c-0.156,1.704-0.087,7.343,0.322,9.013c0.247,1.007,0.808,1.802,1.503,2.539
	c0.858,0.909,5.695,1.798,6.462,2.78c0.894,1.144,1.217,1.848,1.35,2.898v8.463h0.218h0.151h0.215v-8.463
	c0.133-1.051,0.457-1.754,1.351-2.898c0.767-0.981,5.602-1.871,6.461-2.78c0.695-0.737,1.257-1.532,1.502-2.539
	C830.787,191.889,830.856,186.251,830.701,184.548z"/>
<path opacity="0.25" fill-rule="evenodd" clip-rule="evenodd" fill="#FFFFFF" d="M717.624,149.427
	c-0.012-0.129-0.064-0.257-0.104-0.413c-0.101,0.061-0.171,0.079-0.186,0.118c-0.529,1.304-5.1,2.336-6.196,3.132
	c-1.434,1.043-2.127,2.348-2.462,3.305v-1.9c0.11-0.819,0.378-1.37,1.122-2.263c0.638-0.767,4.653-1.462,5.366-2.171
	c0.577-0.575,1.044-1.198,1.249-1.983c0.339-1.305,0.396-5.711,0.267-7.042c-0.012-0.112-0.058-0.219-0.093-0.35
	c-0.092,0.052-0.153,0.067-0.168,0.1c-0.474,1.102-4.578,1.973-5.563,2.646c-1.292,0.886-1.916,1.994-2.215,2.801v-2.036
	c0.098-0.683,0.334-1.142,0.99-1.887c0.565-0.638,4.116-1.217,4.746-1.808c0.515-0.481,0.924-1,1.106-1.654
	c0.3-1.087,0.349-4.759,0.235-5.868c-0.01-0.09-0.052-0.181-0.083-0.292c-0.079,0.044-0.136,0.058-0.146,0.084
	c-0.42,0.918-4.051,1.645-4.921,2.204c-1.137,0.735-1.689,1.652-1.956,2.326v-1.426c0.089-0.583,0.303-0.974,0.893-1.609
	c0.507-0.546,3.701-1.042,4.267-1.546c0.461-0.409,0.833-0.852,0.995-1.409c0.271-0.929,0.318-4.061,0.214-5.009
	c-0.009-0.078-0.046-0.153-0.074-0.247c-0.071,0.038-0.124,0.047-0.134,0.07c-0.378,0.785-3.642,1.404-4.425,1.881
	c-1.027,0.629-1.522,1.415-1.761,1.99l0.004-0.372l-0.002-0.416v-0.271v-0.08c0,0,0.04-0.68,0.146-0.908
	c0.277-0.588,1.555-2.191,1.672-2.682c0.1-0.422,0.136-0.822,0.004-1.197c-0.218-0.624-1.458-2.354-1.899-2.829
	c-0.037-0.04-0.09-0.065-0.145-0.105c-0.024,0.051-0.051,0.077-0.047,0.096c0.1,0.591-1.539,2.322-1.799,2.919
	c-0.612,1.411-0.023,2.363-0.023,2.363l0.057,0.074c0,0,1.42,1.553,1.623,2.458c0.031,0.144,0.055,0.487,0.072,0.848
	c-0.253-0.565-0.747-1.296-1.717-1.889c-0.781-0.478-4.046-1.097-4.423-1.882c-0.012-0.023-0.063-0.033-0.135-0.07
	c-0.026,0.094-0.065,0.169-0.072,0.247c-0.104,0.948-0.061,4.081,0.211,5.009c0.163,0.559,0.535,1,0.993,1.411
	c0.567,0.503,3.761,0.998,4.27,1.544c0.592,0.635,0.804,1.026,0.893,1.609l-0.002,1.426c-0.266-0.674-0.815-1.592-1.954-2.326
	c-0.87-0.56-4.501-1.286-4.921-2.204c-0.011-0.026-0.067-0.04-0.147-0.082c-0.031,0.11-0.073,0.199-0.083,0.292
	c-0.114,1.107-0.063,4.779,0.235,5.866c0.183,0.654,0.596,1.172,1.106,1.654c0.629,0.59,4.183,1.17,4.747,1.808
	c0.655,0.745,0.893,1.204,0.99,1.887v2.036c-0.299-0.807-0.922-1.915-2.217-2.801c-0.985-0.673-5.088-1.543-5.565-2.646
	c-0.012-0.034-0.074-0.047-0.164-0.1c-0.038,0.131-0.082,0.239-0.094,0.35c-0.13,1.331-0.072,5.736,0.267,7.042
	c0.203,0.785,0.67,1.408,1.249,1.983c0.714,0.709,4.729,1.404,5.368,2.172c0.743,0.893,1.011,1.443,1.121,2.262v1.9
	c-0.336-0.957-1.029-2.262-2.464-3.306c-1.096-0.796-5.669-1.826-6.194-3.132c-0.018-0.039-0.085-0.057-0.186-0.118
	c-0.04,0.155-0.093,0.284-0.106,0.413c-0.145,1.576-0.08,6.792,0.298,8.338c0.229,0.931,0.747,1.667,1.391,2.348
	c0.794,0.84,5.269,1.664,5.978,2.571c0.826,1.058,1.126,1.709,1.248,2.681v7.829h0.202h0.14h0.199v-7.829
	c0.122-0.972,0.423-1.623,1.249-2.681c0.709-0.908,5.182-1.731,5.977-2.571c0.644-0.682,1.162-1.417,1.39-2.348
	C717.703,156.218,717.767,151.003,717.624,149.427z"/>
<path opacity="0.3" fill-rule="evenodd" clip-rule="evenodd" fill="#FFFFFF" d="M546.392,139.728
	c-0.008-0.093-0.046-0.185-0.074-0.296c-0.072,0.044-0.123,0.057-0.134,0.084c-0.379,0.934-3.652,1.673-4.438,2.244
	c-1.026,0.748-1.523,1.682-1.763,2.368v-1.361c0.079-0.586,0.271-0.981,0.804-1.621c0.456-0.549,3.333-1.047,3.844-1.556
	c0.413-0.412,0.748-0.858,0.895-1.42c0.242-0.935,0.283-4.091,0.191-5.044c-0.009-0.08-0.042-0.157-0.067-0.25
	c-0.065,0.038-0.109,0.048-0.12,0.071c-0.339,0.789-3.279,1.413-3.985,1.896c-0.925,0.634-1.372,1.428-1.586,2.006v-1.459
	c0.069-0.489,0.239-0.817,0.709-1.351c0.405-0.458,2.948-0.872,3.399-1.295c0.369-0.345,0.662-0.716,0.793-1.185
	c0.215-0.779,0.25-3.409,0.169-4.204c-0.007-0.064-0.037-0.129-0.06-0.208c-0.057,0.032-0.098,0.042-0.105,0.06
	c-0.301,0.658-2.901,1.178-3.524,1.579c-0.814,0.527-1.21,1.184-1.401,1.667v-1.021c0.063-0.418,0.217-0.698,0.64-1.153
	c0.362-0.391,2.651-0.746,3.056-1.107c0.33-0.292,0.597-0.61,0.713-1.009c0.194-0.665,0.229-2.909,0.153-3.588
	c-0.006-0.056-0.033-0.11-0.053-0.177c-0.052,0.027-0.089,0.034-0.097,0.05c-0.271,0.563-2.608,1.006-3.169,1.348
	c-0.736,0.451-1.091,1.014-1.262,1.426l0.003-0.266l-0.001-0.298v-0.194v-0.057c0,0,0.028-0.487,0.104-0.65
	c0.198-0.421,1.113-1.57,1.197-1.921c0.071-0.302,0.098-0.589,0.003-0.857c-0.156-0.446-1.045-1.687-1.36-2.026
	c-0.027-0.028-0.064-0.047-0.104-0.075c-0.018,0.037-0.037,0.055-0.034,0.068c0.071,0.424-1.103,1.664-1.288,2.091
	c-0.438,1.011-0.018,1.693-0.018,1.693l0.041,0.053c0,0,1.018,1.112,1.163,1.76c0.022,0.103,0.039,0.349,0.052,0.608
	c-0.182-0.405-0.535-0.928-1.23-1.353c-0.56-0.342-2.897-0.786-3.168-1.348c-0.008-0.016-0.045-0.023-0.097-0.05
	c-0.019,0.067-0.047,0.122-0.052,0.177c-0.074,0.679-0.043,2.923,0.151,3.588c0.117,0.4,0.384,0.717,0.712,1.011
	c0.406,0.36,2.693,0.715,3.058,1.106c0.424,0.455,0.576,0.735,0.64,1.153l-0.002,1.021c-0.189-0.483-0.584-1.14-1.399-1.667
	c-0.623-0.4-3.224-0.921-3.524-1.579c-0.008-0.019-0.049-0.028-0.105-0.059c-0.022,0.079-0.053,0.143-0.06,0.208
	c-0.082,0.793-0.046,3.423,0.168,4.202c0.131,0.468,0.427,0.84,0.793,1.185c0.45,0.423,2.996,0.838,3.4,1.295
	c0.469,0.534,0.64,0.862,0.709,1.351v1.459c-0.214-0.579-0.66-1.372-1.588-2.006c-0.706-0.482-3.645-1.106-3.986-1.896
	c-0.009-0.024-0.054-0.034-0.118-0.071c-0.026,0.094-0.059,0.171-0.066,0.25c-0.094,0.953-0.052,4.109,0.19,5.044
	c0.146,0.563,0.48,1.009,0.896,1.42c0.511,0.508,3.387,1.006,3.845,1.556c0.532,0.64,0.724,1.034,0.803,1.621v1.361
	c-0.24-0.686-0.737-1.62-1.765-2.368c-0.785-0.57-4.061-1.308-4.437-2.243c-0.013-0.028-0.062-0.041-0.134-0.084
	c-0.028,0.111-0.066,0.203-0.076,0.296c-0.104,1.129-0.057,4.865,0.214,5.972c0.163,0.667,0.535,1.194,0.996,1.682
	c0.568,0.602,3.773,1.191,4.281,1.842c0.592,0.758,0.807,1.225,0.895,1.92v5.608h0.145h0.101h0.143v-5.608
	c0.087-0.696,0.303-1.163,0.895-1.92c0.508-0.65,3.712-1.24,4.281-1.842c0.461-0.488,0.832-1.015,0.995-1.682
	C546.449,144.592,546.496,140.857,546.392,139.728z"/>
<path opacity="0.3" fill-rule="evenodd" clip-rule="evenodd" fill="#FFFFFF" d="M631.043,56.471
	c-0.005-0.061-0.03-0.121-0.049-0.194c-0.048,0.029-0.081,0.037-0.088,0.056c-0.248,0.612-2.395,1.097-2.91,1.471
	c-0.673,0.49-0.999,1.103-1.155,1.552v-0.893c0.052-0.384,0.177-0.643,0.526-1.063c0.299-0.36,2.186-0.687,2.521-1.02
	c0.271-0.27,0.49-0.563,0.587-0.931c0.158-0.613,0.186-2.683,0.125-3.308c-0.006-0.052-0.027-0.103-0.044-0.164
	c-0.043,0.024-0.072,0.031-0.079,0.047c-0.222,0.517-2.15,0.926-2.613,1.243c-0.606,0.416-0.899,0.936-1.04,1.315v-0.957
	c0.046-0.32,0.157-0.536,0.466-0.886c0.266-0.3,1.933-0.572,2.229-0.85c0.242-0.226,0.435-0.47,0.521-0.776
	c0.141-0.511,0.163-2.235,0.11-2.756c-0.005-0.042-0.024-0.085-0.039-0.137c-0.037,0.021-0.064,0.027-0.069,0.039
	c-0.197,0.431-1.902,0.773-2.311,1.035c-0.534,0.346-0.794,0.776-0.919,1.093v-0.67c0.041-0.274,0.142-0.458,0.419-0.756
	c0.238-0.256,1.738-0.489,2.004-0.726c0.217-0.191,0.391-0.4,0.468-0.662c0.127-0.436,0.149-1.907,0.101-2.353
	c-0.004-0.037-0.022-0.072-0.035-0.116c-0.034,0.018-0.059,0.022-0.063,0.033c-0.177,0.369-1.71,0.66-2.077,0.884
	c-0.483,0.296-0.716,0.665-0.828,0.935l0.002-0.175v-0.195v-0.127v-0.037c0,0,0.019-0.319,0.068-0.427
	c0.13-0.276,0.729-1.029,0.785-1.26c0.047-0.198,0.063-0.386,0.002-0.562c-0.103-0.292-0.686-1.106-0.893-1.329
	c-0.018-0.019-0.042-0.031-0.067-0.049c-0.012,0.024-0.024,0.036-0.022,0.045c0.047,0.278-0.723,1.091-0.845,1.371
	c-0.288,0.663-0.012,1.11-0.012,1.11l0.027,0.035c0,0,0.667,0.729,0.763,1.154c0.015,0.068,0.025,0.229,0.033,0.399
	c-0.119-0.266-0.351-0.609-0.807-0.887c-0.367-0.225-1.899-0.515-2.077-0.884c-0.005-0.01-0.029-0.015-0.063-0.033
	c-0.012,0.044-0.03,0.08-0.034,0.116c-0.048,0.445-0.027,1.917,0.1,2.353c0.077,0.262,0.252,0.47,0.467,0.663
	c0.267,0.236,1.767,0.469,2.005,0.725c0.278,0.298,0.378,0.482,0.42,0.756l-0.002,0.67c-0.124-0.316-0.383-0.748-0.917-1.093
	c-0.409-0.262-2.114-0.604-2.312-1.035c-0.005-0.012-0.032-0.019-0.069-0.038c-0.015,0.051-0.034,0.093-0.039,0.137
	c-0.054,0.52-0.029,2.245,0.11,2.755c0.086,0.307,0.28,0.55,0.521,0.776c0.295,0.277,1.964,0.55,2.229,0.85
	c0.307,0.35,0.419,0.565,0.465,0.886v0.957c-0.141-0.379-0.434-0.899-1.041-1.315c-0.463-0.316-2.39-0.725-2.614-1.243
	c-0.006-0.016-0.035-0.022-0.077-0.047c-0.018,0.062-0.039,0.112-0.044,0.164c-0.062,0.625-0.034,2.694,0.125,3.308
	c0.096,0.369,0.315,0.661,0.587,0.931c0.335,0.333,2.221,0.66,2.521,1.021c0.349,0.419,0.475,0.678,0.526,1.063v0.893
	c-0.158-0.45-0.483-1.062-1.157-1.553c-0.515-0.374-2.662-0.857-2.909-1.471c-0.009-0.019-0.04-0.027-0.088-0.056
	c-0.019,0.073-0.043,0.133-0.05,0.194c-0.067,0.74-0.037,3.19,0.141,3.916c0.106,0.438,0.351,0.783,0.652,1.103
	c0.373,0.395,2.475,0.781,2.808,1.208c0.388,0.497,0.529,0.803,0.587,1.259v3.677h0.095h0.065h0.094v-3.677
	c0.057-0.457,0.198-0.762,0.587-1.259c0.333-0.426,2.434-0.813,2.807-1.208c0.303-0.32,0.546-0.666,0.652-1.103
	C631.081,59.66,631.111,57.21,631.043,56.471z"/>
<path opacity="0.3" fill-rule="evenodd" clip-rule="evenodd" fill="#FFFFFF" d="M454.031,68.89c-0.005-0.061-0.03-0.121-0.049-0.194
	c-0.048,0.029-0.081,0.037-0.088,0.056c-0.248,0.612-2.395,1.097-2.91,1.471c-0.673,0.49-0.999,1.103-1.155,1.552v-0.893
	c0.052-0.384,0.177-0.643,0.526-1.063c0.299-0.36,2.186-0.687,2.521-1.02c0.271-0.27,0.49-0.563,0.587-0.931
	c0.158-0.613,0.186-2.683,0.125-3.308c-0.006-0.052-0.027-0.103-0.044-0.164c-0.043,0.024-0.072,0.031-0.079,0.047
	c-0.222,0.517-2.15,0.926-2.613,1.243c-0.606,0.416-0.899,0.936-1.04,1.315v-0.957c0.046-0.32,0.157-0.536,0.466-0.886
	c0.266-0.3,1.933-0.572,2.229-0.85c0.242-0.226,0.435-0.47,0.521-0.776c0.141-0.511,0.163-2.235,0.11-2.756
	c-0.005-0.042-0.024-0.085-0.039-0.137c-0.037,0.021-0.064,0.027-0.069,0.039c-0.197,0.431-1.902,0.773-2.311,1.035
	c-0.534,0.346-0.794,0.776-0.919,1.093v-0.67c0.041-0.274,0.142-0.458,0.419-0.756c0.238-0.256,1.738-0.489,2.004-0.726
	c0.217-0.191,0.391-0.4,0.468-0.662c0.127-0.436,0.149-1.907,0.101-2.353c-0.004-0.037-0.022-0.072-0.035-0.116
	c-0.034,0.018-0.059,0.022-0.063,0.033c-0.177,0.369-1.71,0.66-2.077,0.884c-0.483,0.296-0.716,0.665-0.828,0.935l0.002-0.175
	v-0.195v-0.127v-0.037c0,0,0.019-0.319,0.068-0.427c0.13-0.276,0.729-1.029,0.785-1.26c0.047-0.198,0.063-0.386,0.002-0.562
	c-0.103-0.292-0.686-1.106-0.893-1.329c-0.018-0.019-0.042-0.031-0.067-0.049c-0.012,0.024-0.024,0.036-0.022,0.045
	c0.047,0.278-0.723,1.091-0.845,1.371c-0.288,0.663-0.012,1.11-0.012,1.11l0.027,0.035c0,0,0.667,0.729,0.763,1.154
	c0.015,0.068,0.025,0.229,0.033,0.399c-0.119-0.266-0.351-0.609-0.807-0.887c-0.367-0.225-1.899-0.515-2.077-0.884
	c-0.005-0.01-0.029-0.015-0.063-0.033c-0.012,0.044-0.03,0.08-0.034,0.116c-0.048,0.445-0.027,1.917,0.1,2.353
	c0.077,0.262,0.252,0.47,0.467,0.663c0.267,0.236,1.767,0.469,2.005,0.725c0.278,0.298,0.378,0.482,0.42,0.756l-0.002,0.67
	c-0.124-0.316-0.383-0.748-0.917-1.093c-0.409-0.262-2.114-0.604-2.312-1.035c-0.005-0.012-0.032-0.019-0.069-0.038
	c-0.015,0.051-0.034,0.093-0.039,0.137c-0.054,0.52-0.029,2.245,0.11,2.755c0.086,0.307,0.28,0.55,0.521,0.776
	c0.295,0.277,1.964,0.55,2.229,0.85c0.307,0.35,0.419,0.565,0.465,0.886v0.957c-0.141-0.379-0.434-0.899-1.041-1.315
	c-0.463-0.316-2.39-0.725-2.614-1.243c-0.006-0.016-0.035-0.022-0.077-0.047c-0.018,0.062-0.039,0.112-0.044,0.164
	c-0.062,0.625-0.034,2.694,0.125,3.308c0.096,0.369,0.315,0.661,0.587,0.931c0.335,0.333,2.221,0.66,2.521,1.021
	c0.349,0.419,0.475,0.678,0.526,1.063v0.893c-0.158-0.45-0.483-1.062-1.157-1.553c-0.515-0.374-2.662-0.857-2.909-1.471
	c-0.009-0.019-0.04-0.027-0.088-0.056c-0.019,0.073-0.043,0.133-0.05,0.194c-0.067,0.74-0.037,3.19,0.141,3.916
	c0.106,0.438,0.351,0.783,0.652,1.103c0.373,0.395,2.475,0.781,2.808,1.208c0.388,0.497,0.529,0.803,0.587,1.259v3.677h0.095h0.065
	h0.094v-3.677c0.057-0.457,0.198-0.762,0.587-1.259c0.333-0.426,2.434-0.813,2.807-1.208c0.303-0.32,0.546-0.666,0.652-1.103
	C454.068,72.079,454.098,69.629,454.031,68.89z"/>
<path opacity="0.3" fill-rule="evenodd" clip-rule="evenodd" fill="#FFFFFF" d="M668.327,36.415
	c-0.005-0.061-0.03-0.121-0.049-0.194c-0.048,0.029-0.081,0.037-0.088,0.056c-0.248,0.612-2.395,1.097-2.91,1.471
	c-0.673,0.49-0.999,1.103-1.155,1.552v-0.893c0.052-0.384,0.177-0.643,0.526-1.063c0.299-0.36,2.186-0.687,2.521-1.02
	c0.271-0.27,0.49-0.563,0.587-0.931c0.158-0.613,0.186-2.683,0.125-3.308c-0.006-0.052-0.027-0.103-0.044-0.164
	c-0.043,0.024-0.072,0.031-0.079,0.047c-0.222,0.517-2.15,0.926-2.613,1.243c-0.606,0.416-0.899,0.936-1.04,1.315V33.57
	c0.046-0.32,0.157-0.536,0.466-0.886c0.266-0.3,1.933-0.572,2.229-0.85c0.242-0.226,0.435-0.47,0.521-0.776
	c0.141-0.511,0.163-2.235,0.11-2.756c-0.005-0.042-0.024-0.085-0.039-0.137c-0.037,0.021-0.064,0.027-0.069,0.039
	c-0.197,0.431-1.902,0.773-2.311,1.035c-0.534,0.346-0.794,0.776-0.919,1.093v-0.67c0.041-0.274,0.142-0.458,0.419-0.756
	c0.238-0.256,1.738-0.489,2.004-0.726c0.217-0.191,0.391-0.4,0.468-0.662c0.127-0.436,0.149-1.907,0.101-2.353
	c-0.004-0.037-0.022-0.072-0.035-0.116c-0.034,0.018-0.059,0.022-0.063,0.033c-0.177,0.369-1.71,0.66-2.077,0.884
	c-0.483,0.296-0.716,0.665-0.828,0.935l0.002-0.175v-0.195v-0.127v-0.037c0,0,0.019-0.319,0.068-0.427
	c0.13-0.276,0.729-1.029,0.785-1.26c0.047-0.198,0.063-0.386,0.002-0.562c-0.103-0.292-0.686-1.106-0.893-1.329
	c-0.018-0.019-0.042-0.031-0.067-0.049c-0.012,0.024-0.024,0.036-0.022,0.045c0.047,0.278-0.723,1.091-0.845,1.371
	c-0.288,0.663-0.012,1.11-0.012,1.11l0.027,0.035c0,0,0.667,0.729,0.763,1.154c0.015,0.068,0.025,0.229,0.033,0.399
	c-0.119-0.266-0.351-0.609-0.807-0.887c-0.367-0.225-1.899-0.515-2.077-0.884c-0.005-0.01-0.029-0.015-0.063-0.033
	c-0.012,0.044-0.03,0.08-0.034,0.116c-0.048,0.445-0.027,1.917,0.1,2.353c0.077,0.262,0.252,0.47,0.467,0.663
	c0.267,0.236,1.767,0.469,2.005,0.725c0.278,0.298,0.378,0.482,0.42,0.756l-0.002,0.67c-0.124-0.316-0.383-0.748-0.917-1.093
	c-0.409-0.262-2.114-0.604-2.312-1.035c-0.005-0.012-0.032-0.019-0.069-0.038c-0.015,0.051-0.034,0.093-0.039,0.137
	c-0.054,0.52-0.029,2.245,0.11,2.755c0.086,0.307,0.28,0.55,0.521,0.776c0.295,0.277,1.964,0.55,2.229,0.85
	c0.307,0.35,0.419,0.565,0.465,0.886v0.957c-0.141-0.379-0.434-0.899-1.041-1.315c-0.463-0.316-2.39-0.725-2.614-1.243
	c-0.006-0.016-0.035-0.022-0.077-0.047c-0.018,0.062-0.039,0.112-0.044,0.164c-0.062,0.625-0.034,2.694,0.125,3.308
	c0.096,0.369,0.315,0.661,0.587,0.931c0.335,0.333,2.221,0.66,2.521,1.021c0.349,0.419,0.475,0.678,0.526,1.063V39.3
	c-0.158-0.45-0.483-1.062-1.157-1.553c-0.515-0.374-2.662-0.857-2.909-1.471c-0.009-0.019-0.04-0.027-0.088-0.056
	c-0.019,0.073-0.043,0.133-0.05,0.194c-0.067,0.74-0.037,3.19,0.141,3.916c0.106,0.438,0.351,0.783,0.652,1.103
	c0.373,0.395,2.475,0.781,2.808,1.208c0.388,0.497,0.529,0.803,0.587,1.259v3.677h0.095h0.065h0.094V43.9
	c0.057-0.457,0.198-0.762,0.587-1.259c0.333-0.426,2.434-0.813,2.807-1.208c0.303-0.32,0.546-0.666,0.652-1.103
	C668.364,39.604,668.394,37.155,668.327,36.415z"/>
<path opacity="0.3" fill-rule="evenodd" clip-rule="evenodd" fill="#FFFFFF" d="M759.647,73.594
	c-0.005-0.061-0.03-0.121-0.049-0.194c-0.048,0.029-0.081,0.037-0.088,0.056c-0.248,0.612-2.395,1.097-2.91,1.471
	c-0.673,0.49-0.999,1.103-1.155,1.552v-0.893c0.052-0.384,0.177-0.643,0.526-1.063c0.299-0.36,2.186-0.687,2.521-1.02
	c0.271-0.27,0.49-0.563,0.587-0.931c0.158-0.613,0.186-2.683,0.125-3.308c-0.006-0.052-0.027-0.103-0.044-0.164
	c-0.043,0.024-0.072,0.031-0.079,0.047c-0.222,0.517-2.15,0.926-2.613,1.243c-0.606,0.416-0.899,0.936-1.04,1.315v-0.957
	c0.046-0.32,0.157-0.536,0.466-0.886c0.266-0.3,1.933-0.572,2.229-0.85c0.242-0.226,0.435-0.47,0.521-0.776
	c0.141-0.511,0.163-2.235,0.11-2.756c-0.005-0.042-0.024-0.085-0.039-0.137c-0.037,0.021-0.064,0.027-0.069,0.039
	c-0.197,0.431-1.902,0.773-2.311,1.035c-0.534,0.346-0.794,0.776-0.919,1.093v-0.67c0.041-0.274,0.142-0.458,0.419-0.756
	c0.238-0.256,1.738-0.489,2.004-0.726c0.217-0.191,0.391-0.4,0.468-0.662c0.127-0.436,0.149-1.907,0.101-2.353
	c-0.004-0.037-0.022-0.072-0.035-0.116c-0.034,0.018-0.059,0.022-0.063,0.033c-0.177,0.369-1.71,0.66-2.077,0.884
	c-0.483,0.296-0.716,0.665-0.828,0.935l0.002-0.175V63.71v-0.127v-0.037c0,0,0.019-0.319,0.068-0.427
	c0.13-0.276,0.729-1.029,0.785-1.26c0.047-0.198,0.063-0.386,0.002-0.562c-0.103-0.292-0.686-1.106-0.893-1.329
	c-0.018-0.019-0.042-0.031-0.067-0.049c-0.012,0.024-0.024,0.036-0.022,0.045c0.047,0.278-0.723,1.091-0.845,1.371
	c-0.288,0.663-0.012,1.11-0.012,1.11l0.027,0.035c0,0,0.667,0.729,0.763,1.154c0.015,0.068,0.025,0.229,0.033,0.399
	c-0.119-0.266-0.351-0.609-0.807-0.887c-0.367-0.225-1.899-0.515-2.077-0.884c-0.005-0.01-0.029-0.015-0.063-0.033
	c-0.012,0.044-0.03,0.08-0.034,0.116c-0.048,0.445-0.027,1.917,0.1,2.353c0.077,0.262,0.252,0.47,0.467,0.663
	c0.267,0.236,1.767,0.469,2.005,0.725c0.278,0.298,0.378,0.482,0.42,0.756l-0.002,0.67c-0.124-0.316-0.383-0.748-0.917-1.093
	c-0.409-0.262-2.114-0.604-2.312-1.035c-0.005-0.012-0.032-0.019-0.069-0.038c-0.015,0.051-0.034,0.093-0.039,0.137
	c-0.054,0.52-0.029,2.245,0.11,2.755c0.086,0.307,0.28,0.55,0.521,0.776c0.295,0.277,1.964,0.55,2.229,0.85
	c0.307,0.35,0.419,0.565,0.465,0.886v0.957c-0.141-0.379-0.434-0.899-1.041-1.315c-0.463-0.316-2.39-0.725-2.614-1.243
	c-0.006-0.016-0.035-0.022-0.077-0.047c-0.018,0.062-0.039,0.112-0.044,0.164c-0.062,0.625-0.034,2.694,0.125,3.308
	c0.096,0.369,0.315,0.661,0.587,0.931c0.335,0.333,2.221,0.66,2.521,1.021c0.349,0.419,0.475,0.678,0.526,1.063v0.893
	c-0.158-0.45-0.483-1.062-1.157-1.553c-0.515-0.374-2.662-0.857-2.909-1.471c-0.009-0.019-0.04-0.027-0.088-0.056
	c-0.019,0.073-0.043,0.133-0.05,0.194c-0.067,0.74-0.037,3.19,0.141,3.916c0.106,0.438,0.351,0.783,0.652,1.103
	c0.373,0.395,2.475,0.781,2.808,1.208c0.388,0.497,0.529,0.803,0.587,1.259v3.677h0.095h0.065h0.094V81.08
	c0.057-0.457,0.198-0.762,0.587-1.259c0.333-0.426,2.434-0.813,2.807-1.208c0.303-0.32,0.546-0.666,0.652-1.103
	C759.684,76.784,759.714,74.334,759.647,73.594z"/>
<path opacity="0.3" fill-rule="evenodd" clip-rule="evenodd" fill="#FFFFFF" d="M819.427,68.89c-0.005-0.061-0.03-0.121-0.049-0.194
	c-0.048,0.029-0.081,0.037-0.088,0.056c-0.248,0.612-2.395,1.097-2.91,1.471c-0.673,0.49-0.999,1.103-1.155,1.552v-0.893
	c0.052-0.384,0.177-0.643,0.526-1.063c0.299-0.36,2.186-0.687,2.521-1.02c0.271-0.27,0.49-0.563,0.587-0.931
	c0.158-0.613,0.186-2.683,0.125-3.308c-0.006-0.052-0.027-0.103-0.044-0.164c-0.043,0.024-0.072,0.031-0.079,0.047
	c-0.222,0.517-2.15,0.926-2.613,1.243c-0.606,0.416-0.899,0.936-1.04,1.315v-0.957c0.046-0.32,0.157-0.536,0.466-0.886
	c0.266-0.3,1.933-0.572,2.229-0.85c0.242-0.226,0.435-0.47,0.521-0.776c0.141-0.511,0.163-2.235,0.11-2.756
	c-0.005-0.042-0.024-0.085-0.039-0.137c-0.037,0.021-0.064,0.027-0.069,0.039c-0.197,0.431-1.902,0.773-2.311,1.035
	c-0.534,0.346-0.794,0.776-0.919,1.093v-0.67c0.041-0.274,0.142-0.458,0.419-0.756c0.238-0.256,1.738-0.489,2.004-0.726
	c0.217-0.191,0.391-0.4,0.468-0.662c0.127-0.436,0.149-1.907,0.101-2.353c-0.004-0.037-0.022-0.072-0.035-0.116
	c-0.034,0.018-0.059,0.022-0.063,0.033c-0.177,0.369-1.71,0.66-2.077,0.884c-0.483,0.296-0.716,0.665-0.828,0.935l0.002-0.175
	v-0.195v-0.127v-0.037c0,0,0.019-0.319,0.068-0.427c0.13-0.276,0.729-1.029,0.785-1.26c0.047-0.198,0.063-0.386,0.002-0.562
	c-0.103-0.292-0.686-1.106-0.893-1.329c-0.018-0.019-0.042-0.031-0.067-0.049c-0.012,0.024-0.024,0.036-0.022,0.045
	c0.047,0.278-0.723,1.091-0.845,1.371c-0.288,0.663-0.012,1.11-0.012,1.11l0.027,0.035c0,0,0.667,0.729,0.763,1.154
	c0.015,0.068,0.025,0.229,0.033,0.399c-0.119-0.266-0.351-0.609-0.807-0.887c-0.367-0.225-1.899-0.515-2.077-0.884
	c-0.005-0.01-0.029-0.015-0.063-0.033c-0.012,0.044-0.03,0.08-0.034,0.116c-0.048,0.445-0.027,1.917,0.1,2.353
	c0.077,0.262,0.252,0.47,0.467,0.663c0.267,0.236,1.767,0.469,2.005,0.725c0.278,0.298,0.378,0.482,0.42,0.756l-0.002,0.67
	c-0.124-0.316-0.383-0.748-0.917-1.093c-0.409-0.262-2.114-0.604-2.312-1.035c-0.005-0.012-0.032-0.019-0.069-0.038
	c-0.015,0.051-0.034,0.093-0.039,0.137c-0.054,0.52-0.029,2.245,0.11,2.755c0.086,0.307,0.28,0.55,0.521,0.776
	c0.295,0.277,1.964,0.55,2.229,0.85c0.307,0.35,0.419,0.565,0.465,0.886v0.957c-0.141-0.379-0.434-0.899-1.041-1.315
	c-0.463-0.316-2.39-0.725-2.614-1.243c-0.006-0.016-0.035-0.022-0.077-0.047c-0.018,0.062-0.039,0.112-0.044,0.164
	c-0.062,0.625-0.034,2.694,0.125,3.308c0.096,0.369,0.315,0.661,0.587,0.931c0.335,0.333,2.221,0.66,2.521,1.021
	c0.349,0.419,0.475,0.678,0.526,1.063v0.893c-0.158-0.45-0.483-1.062-1.157-1.553c-0.515-0.374-2.662-0.857-2.909-1.471
	c-0.009-0.019-0.04-0.027-0.088-0.056c-0.019,0.073-0.043,0.133-0.05,0.194c-0.067,0.74-0.037,3.19,0.141,3.916
	c0.106,0.438,0.351,0.783,0.652,1.103c0.373,0.395,2.475,0.781,2.808,1.208c0.388,0.497,0.529,0.803,0.587,1.259v3.677h0.095h0.065
	h0.094v-3.677c0.057-0.457,0.198-0.762,0.587-1.259c0.333-0.426,2.434-0.813,2.807-1.208c0.303-0.32,0.546-0.666,0.652-1.103
	C819.464,72.079,819.495,69.629,819.427,68.89z"/>
<path opacity="0.3" fill-rule="evenodd" clip-rule="evenodd" fill="#FFFFFF" d="M595.961,26.395
	c-0.005-0.061-0.03-0.121-0.049-0.194c-0.048,0.029-0.081,0.037-0.088,0.056c-0.248,0.612-2.395,1.097-2.91,1.471
	c-0.673,0.49-0.999,1.103-1.155,1.552v-0.893c0.052-0.384,0.177-0.643,0.526-1.063c0.299-0.36,2.186-0.687,2.521-1.02
	c0.271-0.27,0.49-0.563,0.587-0.931c0.158-0.613,0.186-2.683,0.125-3.308c-0.006-0.052-0.027-0.103-0.044-0.164
	c-0.043,0.024-0.072,0.031-0.079,0.047c-0.222,0.517-2.15,0.926-2.613,1.243c-0.606,0.416-0.899,0.936-1.04,1.315v-0.957
	c0.046-0.32,0.157-0.536,0.466-0.886c0.266-0.3,1.933-0.572,2.229-0.85c0.242-0.226,0.435-0.47,0.521-0.776
	c0.141-0.511,0.163-2.235,0.11-2.756c-0.005-0.042-0.024-0.085-0.039-0.137c-0.037,0.021-0.064,0.027-0.069,0.039
	c-0.197,0.431-1.902,0.773-2.311,1.035c-0.534,0.346-0.794,0.776-0.919,1.093v-0.67c0.041-0.274,0.142-0.458,0.419-0.756
	c0.238-0.256,1.738-0.489,2.004-0.726c0.217-0.191,0.391-0.4,0.468-0.662c0.127-0.436,0.149-1.907,0.101-2.353
	c-0.004-0.037-0.022-0.072-0.035-0.116c-0.034,0.018-0.059,0.022-0.063,0.033c-0.177,0.369-1.71,0.66-2.077,0.884
	c-0.483,0.296-0.716,0.665-0.828,0.935l0.002-0.175v-0.195v-0.127v-0.037c0,0,0.019-0.319,0.068-0.427
	c0.13-0.276,0.729-1.029,0.785-1.26c0.047-0.198,0.063-0.386,0.002-0.562c-0.103-0.292-0.686-1.106-0.893-1.329
	c-0.018-0.019-0.042-0.031-0.067-0.049c-0.012,0.024-0.024,0.036-0.022,0.045c0.047,0.278-0.723,1.091-0.845,1.371
	c-0.288,0.663-0.012,1.11-0.012,1.11l0.027,0.035c0,0,0.667,0.729,0.763,1.154c0.015,0.068,0.025,0.229,0.033,0.399
	c-0.119-0.266-0.351-0.609-0.807-0.887c-0.367-0.225-1.899-0.515-2.077-0.884c-0.005-0.01-0.029-0.015-0.063-0.033
	c-0.012,0.044-0.03,0.08-0.034,0.116c-0.048,0.445-0.027,1.917,0.1,2.353c0.077,0.262,0.252,0.47,0.467,0.663
	c0.267,0.236,1.767,0.469,2.005,0.725c0.278,0.298,0.378,0.482,0.42,0.756l-0.002,0.67c-0.124-0.316-0.383-0.748-0.917-1.093
	c-0.409-0.262-2.114-0.604-2.312-1.035c-0.005-0.012-0.032-0.019-0.069-0.038c-0.015,0.051-0.034,0.093-0.039,0.137
	c-0.054,0.52-0.029,2.245,0.11,2.755c0.086,0.307,0.28,0.55,0.521,0.776c0.295,0.277,1.964,0.55,2.229,0.85
	c0.307,0.35,0.419,0.565,0.465,0.886v0.957c-0.141-0.379-0.434-0.899-1.041-1.315c-0.463-0.316-2.39-0.725-2.614-1.243
	c-0.006-0.016-0.035-0.022-0.077-0.047c-0.018,0.062-0.039,0.112-0.044,0.164c-0.062,0.625-0.034,2.694,0.125,3.308
	c0.096,0.369,0.315,0.661,0.587,0.931c0.335,0.333,2.221,0.66,2.521,1.021c0.349,0.419,0.475,0.678,0.526,1.063v0.893
	c-0.158-0.45-0.483-1.062-1.157-1.553c-0.515-0.374-2.662-0.857-2.909-1.471c-0.009-0.019-0.04-0.027-0.088-0.056
	c-0.019,0.073-0.043,0.133-0.05,0.194c-0.067,0.74-0.037,3.19,0.141,3.916c0.106,0.438,0.351,0.783,0.652,1.103
	c0.373,0.395,2.475,0.781,2.808,1.208c0.388,0.497,0.529,0.803,0.587,1.259v3.677h0.095h0.065h0.094V33.88
	c0.057-0.457,0.198-0.762,0.587-1.259c0.333-0.426,2.434-0.813,2.807-1.208c0.303-0.32,0.546-0.666,0.652-1.103
	C595.999,29.584,596.029,27.134,595.961,26.395z"/>
<path opacity="0.2" fill-rule="evenodd" clip-rule="evenodd" fill="#FFFFFF" d="M511.306,36.415
	c-0.005-0.061-0.03-0.121-0.049-0.194c-0.048,0.029-0.081,0.037-0.088,0.056c-0.248,0.612-2.395,1.097-2.91,1.471
	c-0.673,0.49-0.999,1.103-1.155,1.552v-0.893c0.052-0.384,0.177-0.643,0.526-1.063c0.299-0.36,2.186-0.687,2.521-1.02
	c0.271-0.27,0.49-0.563,0.587-0.931c0.158-0.613,0.186-2.683,0.125-3.308c-0.006-0.052-0.027-0.103-0.044-0.164
	c-0.043,0.024-0.072,0.031-0.079,0.047c-0.222,0.517-2.15,0.926-2.613,1.243c-0.606,0.416-0.899,0.936-1.04,1.315V33.57
	c0.046-0.32,0.157-0.536,0.466-0.886c0.266-0.3,1.933-0.572,2.229-0.85c0.242-0.226,0.435-0.47,0.521-0.776
	c0.141-0.511,0.163-2.235,0.11-2.756c-0.005-0.042-0.024-0.085-0.039-0.137c-0.037,0.021-0.064,0.027-0.069,0.039
	c-0.197,0.431-1.902,0.773-2.311,1.035c-0.534,0.346-0.794,0.776-0.919,1.093v-0.67c0.041-0.274,0.142-0.458,0.419-0.756
	c0.238-0.256,1.738-0.489,2.004-0.726c0.217-0.191,0.391-0.4,0.468-0.662c0.127-0.436,0.149-1.907,0.101-2.353
	c-0.004-0.037-0.022-0.072-0.035-0.116c-0.034,0.018-0.059,0.022-0.063,0.033c-0.177,0.369-1.71,0.66-2.077,0.884
	c-0.483,0.296-0.716,0.665-0.828,0.935l0.002-0.175v-0.195v-0.127v-0.037c0,0,0.019-0.319,0.068-0.427
	c0.13-0.276,0.729-1.029,0.785-1.26c0.047-0.198,0.063-0.386,0.002-0.562c-0.103-0.292-0.686-1.106-0.893-1.329
	c-0.018-0.019-0.042-0.031-0.067-0.049c-0.012,0.024-0.024,0.036-0.022,0.045c0.047,0.278-0.723,1.091-0.845,1.371
	c-0.288,0.663-0.012,1.11-0.012,1.11l0.027,0.035c0,0,0.667,0.729,0.763,1.154c0.015,0.068,0.025,0.229,0.033,0.399
	c-0.119-0.266-0.351-0.609-0.807-0.887c-0.367-0.225-1.899-0.515-2.077-0.884c-0.005-0.01-0.029-0.015-0.063-0.033
	c-0.012,0.044-0.03,0.08-0.034,0.116c-0.048,0.445-0.027,1.917,0.1,2.353c0.077,0.262,0.252,0.47,0.467,0.663
	c0.267,0.236,1.767,0.469,2.005,0.725c0.278,0.298,0.378,0.482,0.42,0.756l-0.002,0.67c-0.124-0.316-0.383-0.748-0.917-1.093
	c-0.409-0.262-2.114-0.604-2.312-1.035c-0.005-0.012-0.032-0.019-0.069-0.038c-0.015,0.051-0.034,0.093-0.039,0.137
	c-0.054,0.52-0.029,2.245,0.11,2.755c0.086,0.307,0.28,0.55,0.521,0.776c0.295,0.277,1.964,0.55,2.229,0.85
	c0.307,0.35,0.419,0.565,0.465,0.886v0.957c-0.141-0.379-0.434-0.899-1.041-1.315c-0.463-0.316-2.39-0.725-2.614-1.243
	c-0.006-0.016-0.035-0.022-0.077-0.047c-0.018,0.062-0.039,0.112-0.044,0.164c-0.062,0.625-0.034,2.694,0.125,3.308
	c0.096,0.369,0.315,0.661,0.587,0.931c0.335,0.333,2.221,0.66,2.521,1.021c0.349,0.419,0.475,0.678,0.526,1.063V39.3
	c-0.158-0.45-0.483-1.062-1.157-1.553c-0.515-0.374-2.662-0.857-2.909-1.471c-0.009-0.019-0.04-0.027-0.088-0.056
	c-0.019,0.073-0.043,0.133-0.05,0.194c-0.067,0.74-0.037,3.19,0.141,3.916c0.106,0.438,0.351,0.783,0.652,1.103
	c0.373,0.395,2.475,0.781,2.808,1.208c0.388,0.497,0.529,0.803,0.587,1.259v3.677h0.095h0.065h0.094V43.9
	c0.057-0.457,0.198-0.762,0.587-1.259c0.333-0.426,2.434-0.813,2.807-1.208c0.303-0.32,0.546-0.666,0.652-1.103
	C511.343,39.604,511.374,37.155,511.306,36.415z"/>
<path opacity="0.2" fill-rule="evenodd" clip-rule="evenodd" fill="#FFFFFF" d="M564.428,51.232
	c-0.005-0.061-0.03-0.121-0.049-0.194c-0.048,0.029-0.081,0.037-0.088,0.056c-0.248,0.612-2.395,1.097-2.91,1.471
	c-0.673,0.49-0.999,1.103-1.155,1.552v-0.893c0.052-0.384,0.177-0.643,0.526-1.063c0.299-0.36,2.186-0.687,2.521-1.02
	c0.271-0.27,0.49-0.563,0.587-0.931c0.158-0.613,0.186-2.683,0.125-3.308c-0.006-0.052-0.027-0.103-0.044-0.164
	c-0.043,0.024-0.072,0.031-0.079,0.047c-0.222,0.517-2.15,0.926-2.613,1.243c-0.606,0.416-0.899,0.936-1.04,1.315v-0.957
	c0.046-0.32,0.157-0.536,0.466-0.886c0.266-0.3,1.933-0.572,2.229-0.85c0.242-0.226,0.435-0.47,0.521-0.776
	c0.141-0.511,0.163-2.235,0.11-2.756c-0.005-0.042-0.024-0.085-0.039-0.137c-0.037,0.021-0.064,0.027-0.069,0.039
	c-0.197,0.431-1.902,0.773-2.311,1.035c-0.534,0.346-0.794,0.776-0.919,1.093v-0.67c0.041-0.274,0.142-0.458,0.419-0.756
	c0.238-0.256,1.738-0.489,2.004-0.726c0.217-0.191,0.391-0.4,0.468-0.662c0.127-0.436,0.149-1.907,0.101-2.353
	c-0.004-0.037-0.022-0.072-0.035-0.116c-0.034,0.018-0.059,0.022-0.063,0.033c-0.177,0.369-1.71,0.66-2.077,0.884
	c-0.483,0.296-0.716,0.665-0.828,0.935l0.002-0.175v-0.195v-0.127v-0.037c0,0,0.019-0.319,0.068-0.427
	c0.13-0.276,0.729-1.029,0.785-1.26c0.047-0.198,0.063-0.386,0.002-0.562c-0.103-0.292-0.686-1.106-0.893-1.329
	c-0.018-0.019-0.042-0.031-0.067-0.049c-0.012,0.024-0.024,0.036-0.022,0.045c0.047,0.278-0.723,1.091-0.845,1.371
	c-0.288,0.663-0.012,1.11-0.012,1.11l0.027,0.035c0,0,0.667,0.729,0.763,1.154c0.015,0.068,0.025,0.229,0.033,0.399
	c-0.119-0.266-0.351-0.609-0.807-0.887c-0.367-0.225-1.899-0.515-2.077-0.884c-0.005-0.01-0.029-0.015-0.063-0.033
	c-0.012,0.044-0.03,0.08-0.034,0.116c-0.048,0.445-0.027,1.917,0.1,2.353c0.077,0.262,0.252,0.47,0.467,0.663
	c0.267,0.236,1.767,0.469,2.005,0.725c0.278,0.298,0.378,0.482,0.42,0.756l-0.002,0.67c-0.124-0.316-0.383-0.748-0.917-1.093
	c-0.409-0.262-2.114-0.604-2.312-1.035c-0.005-0.012-0.032-0.019-0.069-0.038c-0.015,0.051-0.034,0.093-0.039,0.137
	c-0.054,0.52-0.029,2.245,0.11,2.755c0.086,0.307,0.28,0.55,0.521,0.776c0.295,0.277,1.964,0.55,2.229,0.85
	c0.307,0.35,0.419,0.565,0.465,0.886v0.957c-0.141-0.379-0.434-0.899-1.041-1.315c-0.463-0.316-2.39-0.725-2.614-1.243
	c-0.006-0.016-0.035-0.022-0.077-0.047c-0.018,0.062-0.039,0.112-0.044,0.164c-0.062,0.625-0.034,2.694,0.125,3.308
	c0.096,0.369,0.315,0.661,0.587,0.931c0.335,0.333,2.221,0.66,2.521,1.021c0.349,0.419,0.475,0.678,0.526,1.063v0.893
	c-0.158-0.45-0.483-1.062-1.157-1.553c-0.515-0.374-2.662-0.857-2.909-1.471c-0.009-0.019-0.04-0.027-0.088-0.056
	c-0.019,0.073-0.043,0.133-0.05,0.194c-0.067,0.74-0.037,3.19,0.141,3.916c0.106,0.438,0.351,0.783,0.652,1.103
	c0.373,0.395,2.475,0.781,2.808,1.208c0.388,0.497,0.529,0.803,0.587,1.259v3.677h0.095h0.065h0.094v-3.677
	c0.057-0.457,0.198-0.762,0.587-1.259c0.333-0.426,2.434-0.813,2.807-1.208c0.303-0.32,0.546-0.666,0.652-1.103
	C564.465,54.421,564.496,51.972,564.428,51.232z"/>
<path opacity="0.3" fill-rule="evenodd" clip-rule="evenodd" fill="#FFFFFF" d="M789.647,36.415
	c-0.005-0.061-0.03-0.121-0.049-0.194c-0.048,0.029-0.081,0.037-0.088,0.056c-0.248,0.612-2.395,1.097-2.91,1.471
	c-0.673,0.49-0.999,1.103-1.155,1.552v-0.893c0.052-0.384,0.177-0.643,0.526-1.063c0.299-0.36,2.186-0.687,2.521-1.02
	c0.271-0.27,0.49-0.563,0.587-0.931c0.158-0.613,0.186-2.683,0.125-3.308c-0.006-0.052-0.027-0.103-0.044-0.164
	c-0.043,0.024-0.072,0.031-0.079,0.047c-0.222,0.517-2.15,0.926-2.613,1.243c-0.606,0.416-0.899,0.936-1.04,1.315V33.57
	c0.046-0.32,0.157-0.536,0.466-0.886c0.266-0.3,1.933-0.572,2.229-0.85c0.242-0.226,0.435-0.47,0.521-0.776
	c0.141-0.511,0.163-2.235,0.11-2.756c-0.005-0.042-0.024-0.085-0.039-0.137c-0.037,0.021-0.064,0.027-0.069,0.039
	c-0.197,0.431-1.902,0.773-2.311,1.035c-0.534,0.346-0.794,0.776-0.919,1.093v-0.67c0.041-0.274,0.142-0.458,0.419-0.756
	c0.238-0.256,1.738-0.489,2.004-0.726c0.217-0.191,0.391-0.4,0.468-0.662c0.127-0.436,0.149-1.907,0.101-2.353
	c-0.004-0.037-0.022-0.072-0.035-0.116c-0.034,0.018-0.059,0.022-0.063,0.033c-0.177,0.369-1.71,0.66-2.077,0.884
	c-0.483,0.296-0.716,0.665-0.828,0.935l0.002-0.175v-0.195v-0.127v-0.037c0,0,0.019-0.319,0.068-0.427
	c0.13-0.276,0.729-1.029,0.785-1.26c0.047-0.198,0.063-0.386,0.002-0.562c-0.103-0.292-0.686-1.106-0.893-1.329
	c-0.018-0.019-0.042-0.031-0.067-0.049c-0.012,0.024-0.024,0.036-0.022,0.045c0.047,0.278-0.723,1.091-0.845,1.371
	c-0.288,0.663-0.012,1.11-0.012,1.11l0.027,0.035c0,0,0.667,0.729,0.763,1.154c0.015,0.068,0.025,0.229,0.033,0.399
	c-0.119-0.266-0.351-0.609-0.807-0.887c-0.367-0.225-1.899-0.515-2.077-0.884c-0.005-0.01-0.029-0.015-0.063-0.033
	c-0.012,0.044-0.03,0.08-0.034,0.116c-0.048,0.445-0.027,1.917,0.1,2.353c0.077,0.262,0.252,0.47,0.467,0.663
	c0.267,0.236,1.767,0.469,2.005,0.725c0.278,0.298,0.378,0.482,0.42,0.756l-0.002,0.67c-0.124-0.316-0.383-0.748-0.917-1.093
	c-0.409-0.262-2.114-0.604-2.312-1.035c-0.005-0.012-0.032-0.019-0.069-0.038c-0.015,0.051-0.034,0.093-0.039,0.137
	c-0.054,0.52-0.029,2.245,0.11,2.755c0.086,0.307,0.28,0.55,0.521,0.776c0.295,0.277,1.964,0.55,2.229,0.85
	c0.307,0.35,0.419,0.565,0.465,0.886v0.957c-0.141-0.379-0.434-0.899-1.041-1.315c-0.463-0.316-2.39-0.725-2.614-1.243
	c-0.006-0.016-0.035-0.022-0.077-0.047c-0.018,0.062-0.039,0.112-0.044,0.164c-0.062,0.625-0.034,2.694,0.125,3.308
	c0.096,0.369,0.315,0.661,0.587,0.931c0.335,0.333,2.221,0.66,2.521,1.021c0.349,0.419,0.475,0.678,0.526,1.063V39.3
	c-0.158-0.45-0.483-1.062-1.157-1.553c-0.515-0.374-2.662-0.857-2.909-1.471c-0.009-0.019-0.04-0.027-0.088-0.056
	c-0.019,0.073-0.043,0.133-0.05,0.194c-0.067,0.74-0.037,3.19,0.141,3.916c0.106,0.438,0.351,0.783,0.652,1.103
	c0.373,0.395,2.475,0.781,2.808,1.208c0.388,0.497,0.529,0.803,0.587,1.259v3.677h0.095h0.065h0.094V43.9
	c0.057-0.457,0.198-0.762,0.587-1.259c0.333-0.426,2.434-0.813,2.807-1.208c0.303-0.32,0.546-0.666,0.652-1.103
	C789.684,39.604,789.714,37.155,789.647,36.415z"/>
<path opacity="0.2" fill-rule="evenodd" clip-rule="evenodd" fill="#FFFFFF" d="M708.406,44.052
	c-0.005-0.061-0.03-0.121-0.049-0.194c-0.048,0.029-0.081,0.037-0.088,0.056c-0.248,0.612-2.395,1.097-2.91,1.471
	c-0.673,0.49-0.999,1.103-1.155,1.552v-0.893c0.052-0.384,0.177-0.643,0.526-1.063c0.299-0.36,2.186-0.687,2.521-1.02
	c0.271-0.27,0.49-0.563,0.587-0.931c0.158-0.613,0.186-2.683,0.125-3.308c-0.006-0.052-0.027-0.103-0.044-0.164
	c-0.043,0.024-0.072,0.031-0.079,0.047c-0.222,0.517-2.15,0.926-2.613,1.243c-0.606,0.416-0.899,0.936-1.04,1.315v-0.957
	c0.046-0.32,0.157-0.536,0.466-0.886c0.266-0.3,1.933-0.572,2.229-0.85c0.242-0.226,0.435-0.47,0.521-0.776
	c0.141-0.511,0.163-2.235,0.11-2.756c-0.005-0.042-0.024-0.085-0.039-0.137c-0.037,0.021-0.064,0.027-0.069,0.039
	c-0.197,0.431-1.902,0.773-2.311,1.035c-0.534,0.346-0.794,0.776-0.919,1.093v-0.67c0.041-0.274,0.142-0.458,0.419-0.756
	c0.238-0.256,1.738-0.489,2.004-0.726c0.217-0.191,0.391-0.4,0.468-0.662c0.127-0.436,0.149-1.907,0.101-2.353
	c-0.004-0.037-0.022-0.072-0.035-0.116c-0.034,0.018-0.059,0.022-0.063,0.033c-0.177,0.369-1.71,0.66-2.077,0.884
	c-0.483,0.296-0.716,0.665-0.828,0.935l0.002-0.175v-0.195v-0.127v-0.037c0,0,0.019-0.319,0.068-0.427
	c0.13-0.276,0.729-1.029,0.785-1.26c0.047-0.198,0.063-0.386,0.002-0.562c-0.103-0.292-0.686-1.106-0.893-1.329
	c-0.018-0.019-0.042-0.031-0.067-0.049c-0.012,0.024-0.024,0.036-0.022,0.045c0.047,0.278-0.723,1.091-0.845,1.371
	c-0.288,0.663-0.012,1.11-0.012,1.11l0.027,0.035c0,0,0.667,0.729,0.763,1.154c0.015,0.068,0.025,0.229,0.033,0.399
	c-0.119-0.266-0.351-0.609-0.807-0.887c-0.367-0.225-1.899-0.515-2.077-0.884c-0.005-0.01-0.029-0.015-0.063-0.033
	c-0.012,0.044-0.03,0.08-0.034,0.116c-0.048,0.445-0.027,1.917,0.1,2.353c0.077,0.262,0.252,0.47,0.467,0.663
	c0.267,0.236,1.767,0.469,2.005,0.725c0.278,0.298,0.378,0.482,0.42,0.756l-0.002,0.67c-0.124-0.316-0.383-0.748-0.917-1.093
	c-0.409-0.262-2.114-0.604-2.312-1.035c-0.005-0.012-0.032-0.019-0.069-0.038c-0.015,0.051-0.034,0.093-0.039,0.137
	c-0.054,0.52-0.029,2.245,0.11,2.755c0.086,0.307,0.28,0.55,0.521,0.776c0.295,0.277,1.964,0.55,2.229,0.85
	c0.307,0.35,0.419,0.565,0.465,0.886v0.957c-0.141-0.379-0.434-0.899-1.041-1.315c-0.463-0.316-2.39-0.725-2.614-1.243
	c-0.006-0.016-0.035-0.022-0.077-0.047c-0.018,0.062-0.039,0.112-0.044,0.164c-0.062,0.625-0.034,2.694,0.125,3.308
	c0.096,0.369,0.315,0.661,0.587,0.931c0.335,0.333,2.221,0.66,2.521,1.021c0.349,0.419,0.475,0.678,0.526,1.063v0.893
	c-0.158-0.45-0.483-1.062-1.157-1.553c-0.515-0.374-2.662-0.857-2.909-1.471c-0.009-0.019-0.04-0.027-0.088-0.056
	c-0.019,0.073-0.043,0.133-0.05,0.194c-0.067,0.74-0.037,3.19,0.141,3.916c0.106,0.438,0.351,0.783,0.652,1.103
	c0.373,0.395,2.475,0.781,2.808,1.208c0.388,0.497,0.529,0.803,0.587,1.259v3.677h0.095h0.065h0.094v-3.677
	c0.057-0.457,0.198-0.762,0.587-1.259c0.333-0.426,2.434-0.813,2.807-1.208c0.303-0.32,0.546-0.666,0.652-1.103
	C708.443,47.242,708.473,44.792,708.406,44.052z"/>
<g>
	<g>
		<g>
			<defs>
				<rect id="SVGID_1_" y="0" width="841.898" height="595.281"/>
			</defs>
			<clipPath id="SVGID_2_">
				<use xlink:href="#SVGID_1_"  overflow="visible"/>
			</clipPath>
		</g>
	</g>
</g>
<g>
	<g>
		<path id="SVGID_3_" fill="#27A987" d="M403.435,218.598c11.428,11.43,11.428,29.957,0,41.388L299.966,363.454
			c-11.43,11.43-29.96,11.43-41.388,0l-103.47-103.47c-11.429-11.43-11.429-29.96,0-41.388l103.469-103.469
			c11.429-11.429,29.958-11.427,41.387,0L403.435,218.598z"/>
	</g>
	<g>
		<g>
			<defs>
				<path id="SVGID_4_" d="M403.435,218.598c11.428,11.43,11.428,29.957,0,41.388L299.966,363.454
					c-11.43,11.43-29.96,11.43-41.388,0l-103.47-103.47c-11.429-11.43-11.429-29.96,0-41.388l103.469-103.469
					c11.429-11.429,29.958-11.427,41.387,0L403.435,218.598z"/>
			</defs>
			<clipPath id="SVGID_5_">
				<use xlink:href="#SVGID_4_"  overflow="visible"/>
			</clipPath>
			<g opacity="0.3" clip-path="url(#SVGID_5_)">
				<path fill="#FFFFFF" d="M314.896,285.14l30.637,60.843l-19.417,19.418l-96.008-194.823l22.653-22.653l195.037,95.792
					l-20.064,20.065l-61.273-30.205L314.896,285.14z M347.905,222.788l-56.094-27.615c-12.73-6.258-23.518-12.729-34.089-18.986
					l-0.432,0.432c6.473,10.787,12.945,22.006,18.986,33.656l27.832,56.312L347.905,222.788z"/>
			</g>
		</g>
	</g>
</g>
<g>
	<g>
		<path id="XMLID_10_" fill="#71C1C2" d="M514.826,182.229c0,22.371-18.137,40.508-40.506,40.508h-40.51
			c-22.372,0-40.508-18.137-40.508-40.508v-40.507c0-22.372,18.136-40.51,40.508-40.51h40.51c22.369,0,40.506,18.138,40.506,40.51
			V182.229z"/>
	</g>
	<g>
		<g>
			<defs>
				<path id="SVGID_6_" d="M514.826,182.229c0,22.371-18.137,40.508-40.506,40.508h-40.51c-22.372,0-40.508-18.137-40.508-40.508
					v-40.507c0-22.372,18.136-40.51,40.508-40.51h40.51c22.369,0,40.506,18.138,40.506,40.51V182.229z"/>
			</defs>
			<clipPath id="SVGID_7_">
				<use xlink:href="#SVGID_6_"  overflow="visible"/>
			</clipPath>
			<g opacity="0.3" clip-path="url(#SVGID_7_)">
				<path fill="#FFFFFF" d="M430.88,118.16c7.133-1.502,18.396-2.629,29.846-2.629c16.332,0,26.846,2.816,34.729,9.198
					c6.57,4.881,10.512,12.39,10.512,22.338c0,12.201-8.068,22.901-21.396,27.782v0.375c12.014,3.004,26.094,12.952,26.094,31.724
					c0,10.888-4.318,19.146-10.701,25.342c-8.822,8.071-23.088,11.825-43.736,11.825c-11.264,0-19.896-0.751-25.342-1.501V118.16
					H430.88z M447.212,169.968h14.828c17.27,0,27.406-9.011,27.406-21.212c0-14.829-11.266-20.648-27.781-20.648
					c-7.508,0-11.826,0.563-14.453,1.126V169.968z M447.212,230.601c3.189,0.563,7.883,0.75,13.703,0.75
					c16.893,0,32.473-6.194,32.473-24.59c0-17.27-14.828-24.403-32.662-24.403h-13.514V230.601z"/>
			</g>
		</g>
	</g>
</g>
<g>
	<g>
		<path id="XMLID_12_" fill="#132531" d="M620.541,296.376c-13.557,13.557-35.537,13.557-49.094,0.001l-49.092-49.093
			c-13.557-13.557-13.557-35.536,0-49.094l49.094-49.092c13.555-13.557,35.535-13.557,49.092,0l49.092,49.093
			c13.561,13.556,13.561,35.536,0,49.093L620.541,296.376z"/>
	</g>
	<g>
		<g>
			<defs>
				<path id="SVGID_8_" d="M620.541,296.376c-13.557,13.557-35.537,13.557-49.094,0.001l-49.092-49.093
					c-13.557-13.557-13.557-35.536,0-49.094l49.094-49.092c13.555-13.557,35.535-13.557,49.092,0l49.092,49.093
					c13.561,13.556,13.561,35.536,0,49.093L620.541,296.376z"/>
			</defs>
			<clipPath id="SVGID_9_">
				<use xlink:href="#SVGID_8_"  overflow="visible"/>
			</clipPath>
			<g opacity="0.3" clip-path="url(#SVGID_9_)">
				<path fill="#FFFFFF" d="M564.429,334.22c-7.025-2.342-18.732-9.364-30.734-21.364c-27.807-27.809-31.172-66.298,1.172-98.643
					c30.881-30.88,72.734-30.88,103.324-0.292c12.293,12.293,17.416,22.684,19.023,27.807l-13.465,7.316
					c-2.486-7.171-7.609-15.806-15.805-24.001c-23.125-23.124-53.271-23.709-79.18,2.195c-24.145,24.147-25.758,53.564-1.756,77.566
					c7.758,7.756,17.271,14.049,24.879,16.685L564.429,334.22z"/>
			</g>
		</g>
	</g>
</g>
<g>
	<g>
		<path id="XMLID_14_" fill="#B18046" d="M611.408,484.667c-13.066,13.063-34.244,13.063-47.309,0l-47.309-47.307
			c-13.064-13.063-13.064-34.244,0-47.31l47.309-47.309c13.063-13.063,34.242-13.063,47.309,0.004l47.305,47.305
			c13.064,13.064,13.064,34.246,0,47.31L611.408,484.667z"/>
	</g>
	<g>
		<g>
			<defs>
				<path id="SVGID_10_" d="M611.408,484.667c-13.066,13.063-34.244,13.063-47.309,0l-47.309-47.307
					c-13.064-13.063-13.064-34.244,0-47.31l47.309-47.309c13.063-13.063,34.242-13.063,47.309,0.004l47.305,47.305
					c13.064,13.064,13.064,34.246,0,47.31L611.408,484.667z"/>
			</defs>
			<clipPath id="SVGID_11_">
				<use xlink:href="#SVGID_10_"  overflow="visible"/>
			</clipPath>
			<g opacity="0.3" clip-path="url(#SVGID_11_)">
				<path fill="#FFFFFF" d="M636.035,462.95l-38.826-38.828l-36.012,36.012l43.271,43.271l-10.816,10.817l-56.166-56.166
					l99.883-99.885l53.943,53.943l-10.818,10.817l-41.049-41.051l-31.566,31.566l38.828,38.825L636.035,462.95z"/>
			</g>
		</g>
	</g>
</g>
<g>
	<g>
		<path id="XMLID_15_" fill="#A49B94" d="M805.23,363.144c0,20.347-16.49,36.839-36.834,36.839h-73.674
			c-20.342,0-36.834-16.492-36.834-36.839v-73.669c0-20.342,16.492-36.833,36.834-36.833h73.674
			c20.344,0,36.834,16.491,36.834,36.833V363.144z"/>
	</g>
	<g>
		<g>
			<defs>
				<path id="SVGID_12_" d="M805.23,363.144c0,20.347-16.49,36.839-36.834,36.839h-73.674c-20.342,0-36.834-16.492-36.834-36.839
					v-73.669c0-20.342,16.492-36.833,36.834-36.833h73.674c20.344,0,36.834,16.491,36.834,36.833V363.144z"/>
			</defs>
			<clipPath id="SVGID_13_">
				<use xlink:href="#SVGID_12_"  overflow="visible"/>
			</clipPath>
			<g opacity="0.3" clip-path="url(#SVGID_13_)">
				<path fill="#FFFFFF" d="M690.806,270.831h93.033v18.709h-70.734v57.408h65.354v18.453h-65.354v78.168h-22.299V270.831z"/>
			</g>
		</g>
	</g>
</g>
<g>
	<g>
		<path id="XMLID_13_" fill="#62281C" d="M547.195,302.396c11.43,11.433,11.43,29.962,0,41.392l-62.082,62.08
			c-11.43,11.43-29.961,11.43-41.391,0l-62.081-62.082c-11.43-11.428-11.43-29.957,0-41.39l62.081-62.08
			c11.432-11.429,29.961-11.429,41.391-0.001L547.195,302.396z"/>
	</g>
	<g>
		<g>
			<defs>
				<path id="SVGID_14_" d="M547.195,302.396c11.43,11.433,11.43,29.962,0,41.392l-62.082,62.08c-11.43,11.43-29.961,11.43-41.391,0
					l-62.081-62.082c-11.43-11.428-11.43-29.957,0-41.39l62.081-62.08c11.432-11.429,29.961-11.429,41.391-0.001L547.195,302.396z"
					/>
			</defs>
			<clipPath id="SVGID_15_">
				<use xlink:href="#SVGID_14_"  overflow="visible"/>
			</clipPath>
			<g opacity="0.3" clip-path="url(#SVGID_15_)">
				<path fill="#FFFFFF" d="M357.142,295.09c7.165-9.711,16.239-20.696,27.224-31.681c19.9-19.9,38.686-29.452,56.834-30.089
					c18.309-0.797,36.297,6.049,53.646,23.402c17.516,17.512,26.432,37.252,26.271,57.152c0,20.059-11.146,42.029-31.998,62.885
					c-9.871,9.871-18.627,17.672-26.428,23.881L357.142,295.09z M465.876,376.124c4.139-2.865,9.393-7.801,14.805-13.213
					c29.611-29.611,29.135-62.248,0.16-91.223c-25.152-25.472-55.563-27.224-84.854,2.069c-7.164,7.164-11.939,13.214-14.806,17.671
					L465.876,376.124z"/>
			</g>
		</g>
	</g>
</g>
</svg>
